<svg width="24" height="24" viewBox="0 0 24 24" fill="none" xmlns="http://www.w3.org/2000/svg">
<path fill-rule="evenodd" clip-rule="evenodd" d="M16.7071 2.29289C17.0976 2.68342 17.0976 3.31658 16.7071 3.70711L8.41421 12L16.7071 20.2929C17.0976 20.6834 17.0976 21.3166 16.7071 21.7071C16.3166 22.0976 15.6834 22.0976 15.2929 21.7071L6.29289 12.7071C5.90237 12.3166 5.90237 11.6834 6.29289 11.2929L15.2929 2.29289C15.6834 1.90237 16.3166 1.90237 16.7071 2.29289Z" fill="#0D0D0D"/>
<path d="M17 3C17 2.74408 16.9024 2.48816 16.7071 2.29289C16.3166 1.90237 15.6834 1.90237 15.2929 2.29289L6.29289 11.2929C5.90237 11.6834 5.90237 12.3166 6.29289 12.7071L15.2929 21.7071C15.6834 22.0976 16.3166 22.0976 16.7071 21.7071C16.9024 21.5118 17 21.2559 17 21C17 20.9998 17 21.0002 17 21V3Z" fill="#0D0D0D"/>
</svg>
