<svg width="24" height="24" viewBox="0 0 24 24" fill="none" xmlns="http://www.w3.org/2000/svg">
<path fill-rule="evenodd" clip-rule="evenodd" d="M7.29289 2.29289C6.90237 2.68342 6.90237 3.31658 7.29289 3.70711L15.5858 12L7.29289 20.2929C6.90237 20.6834 6.90237 21.3166 7.29289 21.7071C7.68342 22.0976 8.31658 22.0976 8.70711 21.7071L17.7071 12.7071C18.0976 12.3166 18.0976 11.6834 17.7071 11.2929L8.70711 2.29289C8.31658 1.90237 7.68342 1.90237 7.29289 2.29289Z" fill="#0D0D0D"/>
<path d="M7 3C7 2.74408 7.09763 2.48816 7.29289 2.29289C7.68342 1.90237 8.31658 1.90237 8.70711 2.29289L17.7071 11.2929C18.0976 11.6834 18.0976 12.3166 17.7071 12.7071L8.70711 21.7071C8.31658 22.0976 7.68342 22.0976 7.29289 21.7071C7.09763 21.5118 7 21.2559 7 21C7 20.9998 7 21.0002 7 21V3Z" fill="#0D0D0D"/>
</svg>
