<svg width="24" height="24" viewBox="0 0 24 24" fill="none" xmlns="http://www.w3.org/2000/svg">
<path fill-rule="evenodd" clip-rule="evenodd" d="M7 17.5803L16.9205 12L7 6.41971V17.5803ZM18.47 12.8716C18.4696 12.8714 18.4692 12.8712 18.4688 12.8709L18.47 12.8716ZM5 4.70986V19.2902C5 20.055 5.82366 20.5367 6.49026 20.1617L19.4505 12.8716C20.1302 12.4893 20.1302 11.5107 19.4505 11.1284L6.49026 3.83828C5.82366 3.46332 5 3.94503 5 4.70986Z" fill="#0D0D0D"/>
<path d="M5 19.2902V4.70986C5 3.94503 5.82366 3.46332 6.49026 3.83828L19.4505 11.1284C20.1302 11.5107 20.1302 12.4893 19.4505 12.8716L6.49026 20.1617C5.82366 20.5367 5 20.055 5 19.2902Z" fill="#0D0D0D"/>
</svg>
