<svg width="24" height="24" viewBox="0 0 24 24" fill="none" xmlns="http://www.w3.org/2000/svg">
<path d="M12 6.1416V17.8584C12 18.7704 10.8791 19.2064 10.2628 18.5341L7.91499 15.9728C7.34676 15.3529 6.54445 15 5.70353 15H4C3.44772 15 3 14.5523 3 14V10C3 9.44772 3.44772 9 4 9H5.70353C6.54445 9 7.34676 8.64706 7.91499 8.02717L10.2628 5.46588C10.8791 4.79359 12 5.2296 12 6.1416Z" fill="#0D0D0D" stroke="#0D0D0D" stroke-width="2" stroke-linecap="round" stroke-linejoin="round"/>
<path fill-rule="evenodd" clip-rule="evenodd" d="M18.7782 4.29289C18.3877 3.90237 17.7545 3.90237 17.364 4.29289C16.9734 4.68342 16.9734 5.31658 17.364 5.70711C20.8787 9.22183 20.8787 14.9203 17.364 18.435C16.9734 18.8256 16.9734 19.4587 17.364 19.8492C17.7545 20.2398 18.3877 20.2398 18.7782 19.8492C23.0739 15.5535 23.0739 8.58866 18.7782 4.29289ZM15.9498 7.29292C15.5592 6.9024 14.9261 6.9024 14.5355 7.29292C14.145 7.68344 14.145 8.31661 14.5355 8.70713C16.4882 10.6598 16.4882 13.8256 14.5355 15.7782C14.145 16.1687 14.145 16.8019 14.5355 17.1924C14.9261 17.5829 15.5592 17.5829 15.9498 17.1924C18.6834 14.4587 18.6834 10.0266 15.9498 7.29292Z" fill="#0D0D0D"/>
</svg>
