<svg width="24" height="24" viewBox="0 0 24 24" fill="none" xmlns="http://www.w3.org/2000/svg">
<path d="M13 6.1416V17.8584C13 19.6824 10.7582 20.5544 9.52569 19.2098L7.17784 16.6486C6.79902 16.2353 6.26414 16 5.70353 16H4C2.89543 16 2 15.1046 2 14V10C2 8.89543 2.89543 8 4 8H5.70353C6.26414 8 6.79902 7.76471 7.17784 7.35145L9.52569 4.79016C10.7582 3.44557 13 4.31759 13 6.1416Z" fill="#0D0D0D"/>
<path fill-rule="evenodd" clip-rule="evenodd" d="M15.7071 8.29289C15.3166 7.90237 14.6834 7.90237 14.2929 8.29289C13.9024 8.68342 13.9024 9.31658 14.2929 9.70711L16.5858 12L14.2929 14.2929C13.9024 14.6834 13.9024 15.3166 14.2929 15.7071C14.6834 16.0976 15.3166 16.0976 15.7071 15.7071L18 13.4142L20.2929 15.7071C20.6834 16.0976 21.3166 16.0976 21.7071 15.7071C22.0976 15.3166 22.0976 14.6834 21.7071 14.2929L19.4142 12L21.7071 9.70711C22.0976 9.31658 22.0976 8.68342 21.7071 8.29289C21.3166 7.90237 20.6834 7.90237 20.2929 8.29289L18 10.5858L15.7071 8.29289Z" fill="#0D0D0D"/>
</svg>
