<svg xmlns="http://www.w3.org/2000/svg" fill="currentColor" viewBox="0 0 66 64">
  <path fill="#000" d="M10.7 38.24c-.14-.14-.3-.2-.46-.24-.16.04-.34.12-.46.24L1.3 46.68c-.4.38-.4 1.02 0 1.4.4.38 1.02.38 1.42 0l6.54-6.5V63c0 .54.44 1 1 1s1-.44 1-1V41.58l6.54 6.5c.4.38 1.02.38 1.42 0 .4-.38.4-1.02 0-1.4l-8.48-8.44h-.04Zm54 8.44-8.48-8.44c-.14-.14-.3-.2-.46-.24-.16.04-.34.12-.46.24l-8.48 8.44c-.4.38-.4 1.02 0 1.4.4.38 1.02.38 1.42 0l6.54-6.5V63c0 .54.44 1 1 1s1-.44 1-1V41.58l6.54 6.5c.4.38 1.02.38 1.42 0 .4-.38.4-1.02 0-1.4h-.04ZM32.82 12c13 0 24.92-3.84 31.86-10.28.4-.38.42-1 .04-1.4-.38-.4-1-.42-1.42-.04-6.58 6.1-17.98 9.76-30.5 9.76S9.3 6.5 2.66.58a1.01 1.01 0 0 0-1.42.08c-.36.4-.34 1.04.08 1.4C8.32 8.28 20.08 12 32.8 12h.02Zm31.92 12.32c-.38-.4-1-.42-1.42-.04-6.58 6.1-17.98 9.76-30.5 9.76S9.3 30.5 2.66 24.58a1.01 1.01 0 0 0-1.42.08c-.36.4-.34 1.04.08 1.4C8.32 32.28 20.08 36 32.8 36c12.72 0 24.92-3.84 31.86-10.28.4-.38.42-1 .04-1.4h.04Zm-26.52-2.54c-.56.04-.96.52-.9 1.08.04.52.48.9 1 .9h.08c1.34-.12 2.7-.28 4.04-.48.54-.08.92-.58.84-1.12-.08-.54-.6-.9-1.14-.82-1.28.2-2.58.36-3.9.46l-.02-.02Zm11.56-2.2c-1.22.38-2.5.72-3.78 1-.54.12-.88.66-.76 1.18.1.46.52.76.98.76.08 0 .14 0 .22-.02 1.34-.3 2.66-.66 3.94-1.04a1 1 0 0 0 .66-1.24c-.16-.52-.72-.82-1.26-.66v.02ZM57 16.64c-1.12.58-2.3 1.14-3.54 1.64a.97.97 0 0 0-.54 1.3c.16.38.54.62.92.62.12 0 .26-.02.38-.08 1.3-.52 2.54-1.1 3.72-1.72.48-.26.68-.86.42-1.34-.26-.48-.86-.66-1.36-.42Zm6.32-4.38c-.9.84-1.92 1.64-3 2.38-.46.32-.56.92-.26 1.38.2.28.5.42.82.42.2 0 .4-.06.56-.18 1.18-.8 2.26-1.66 3.24-2.56.4-.38.42-1 .04-1.4-.38-.4-1-.42-1.42-.04h.02Zm-32.96 9.72c-.54 0-1.02.4-1.04.94-.02.54.4 1 .96 1.04.84.04 1.68.04 2.54.04h1.52c.56 0 1-.46.98-1.02-.02-.56-.42-.94-1.02-.96-1.3.04-2.64.02-3.94-.04Zm-27.02-6.3c.18.14.38.2.6.2.3 0 .6-.14.8-.4a.97.97 0 0 0-.2-1.38c-.66-.48-1.28-1-1.86-1.52a1.01 1.01 0 0 0-1.42.08c-.36.4-.34 1.04.08 1.4.64.56 1.3 1.1 2.02 1.62h-.02Zm4.46.5c-.48-.26-1.1-.1-1.36.38-.28.48-.1 1.08.38 1.34 1.16.64 2.4 1.26 3.68 1.8.14.06.26.08.4.08a1 1 0 0 0 .92-.6c.22-.5 0-1.08-.52-1.3-1.22-.52-2.38-1.1-3.48-1.72l-.02.02Zm7.14 3.1c-.52-.18-1.1.1-1.26.62a.99.99 0 0 0 .62 1.26c1.26.42 2.58.8 3.92 1.12.08 0 .16.02.24.02.44 0 .86-.3.98-.76.14-.52-.2-1.06-.74-1.2a54.6 54.6 0 0 1-3.76-1.08v.02Zm7.6 1.88c-.54-.12-1.06.26-1.16.8-.1.54.26 1.06.82 1.14 1.32.22 2.68.42 4.04.56h.1c.5 0 .94-.38 1-.88a.977.977 0 0 0-.9-1.08c-1.32-.14-2.62-.32-3.9-.54Z"/>
</svg>
