<svg xmlns="http://www.w3.org/2000/svg" fill="currentColor" viewBox="0 0 64 64">
  <path fill="#231F20" d="M14 4a2 2 0 1 0 0-4 2 2 0 0 0 0 4Zm6 0a2 2 0 1 0 0-4 2 2 0 0 0 0 4Zm6 0a2 2 0 1 0 0-4 2 2 0 0 0 0 4Zm24 4a2 2 0 1 0 0-4 2 2 0 0 0 0 4Zm0 6a2 2 0 1 0 0-4 2 2 0 0 0 0 4Zm0 6a2 2 0 1 0 0-4 2 2 0 0 0 0 4Zm-6 0a2 2 0 1 0 0-4 2 2 0 0 0 0 4Zm12 0a2 2 0 1 0 0-4 2 2 0 0 0 0 4Zm6 0a2 2 0 1 0 0-4 2 2 0 0 0 0 4Zm-12 6a2 2 0 1 0 0-4 2 2 0 0 0 0 4Zm0 6a2 2 0 1 0 0-4 2 2 0 0 0 0 4Zm0 6a2 2 0 1 0 0-4 2 2 0 0 0 0 4Zm0 6a2 2 0 1 0 0-4 2 2 0 0 0 0 4Zm0 6a2 2 0 1 0 0-4 2 2 0 0 0 0 4Zm6 0a2 2 0 1 0 0-4 2 2 0 0 0 0 4Zm6 2a2 2 0 1 0 0-4 2 2 0 0 0 0 4ZM14 10a2 2 0 1 0 0-4 2 2 0 0 0 0 4Zm-6 2a2 2 0 1 0 0-4 2 2 0 0 0 0 4Zm0 6a2 2 0 1 0 0-4 2 2 0 0 0 0 4Zm0 6a2 2 0 1 0 0-4 2 2 0 0 0 0 4Zm0 6a2 2 0 1 0 0-4 2 2 0 0 0 0 4Zm0 18a2 2 0 1 0 0-4 2 2 0 0 0 0 4Zm0-12a2 2 0 1 0 0-4 2 2 0 0 0 0 4Zm0 6a2 2 0 1 0 0-4 2 2 0 0 0 0 4Zm24-30a2 2 0 1 0 0-4 2 2 0 0 0 0 4Zm0 6a2 2 0 1 0 0-4 2 2 0 0 0 0 4Zm0 6a2 2 0 1 0 0-4 2 2 0 0 0 0 4Zm0 6a2 2 0 1 0 0-4 2 2 0 0 0 0 4Zm0 18a2 2 0 1 0 0-4 2 2 0 0 0 0 4Zm0-12a2 2 0 1 0 0-4 2 2 0 0 0 0 4Zm0 6a2 2 0 1 0 0-4 2 2 0 0 0 0 4ZM2 18a2 2 0 1 0 0-4 2 2 0 0 0 0 4Zm0 6a2 2 0 1 0 0-4 2 2 0 0 0 0 4Zm0 6a2 2 0 1 0 0-4 2 2 0 0 0 0 4Zm0 6a2 2 0 1 0 0-4 2 2 0 0 0 0 4Zm0 6a2 2 0 1 0 0-4 2 2 0 0 0 0 4Zm36-24a2 2 0 1 0 0-4 2 2 0 0 0 0 4Zm0 6a2 2 0 1 0 0-4 2 2 0 0 0 0 4Zm0 6a2 2 0 1 0 0-4 2 2 0 0 0 0 4Zm0 6a2 2 0 1 0 0-4 2 2 0 0 0 0 4Zm0 6a2 2 0 1 0 0-4 2 2 0 0 0 0 4ZM20 10a2 2 0 1 0 0-4 2 2 0 0 0 0 4Zm6 0a2 2 0 1 0 0-4 2 2 0 0 0 0 4ZM14 52a2 2 0 1 0 0-4 2 2 0 0 0 0 4Zm6 0a2 2 0 1 0 0-4 2 2 0 0 0 0 4Zm6 0a2 2 0 1 0 0-4 2 2 0 0 0 0 4Zm-12 6a2 2 0 1 0 0-4 2 2 0 0 0 0 4Zm6 0a2 2 0 1 0 0-4 2 2 0 0 0 0 4Zm6 0a2 2 0 1 0 0-4 2 2 0 0 0 0 4Zm6 0a2 2 0 1 0 0-4 2 2 0 0 0 0 4Zm-2 6a2 2 0 1 0 0-4 2 2 0 0 0 0 4Zm6 0a2 2 0 1 0 0-4 2 2 0 0 0 0 4Z"/>
</svg>
