<svg xmlns="http://www.w3.org/2000/svg" fill="currentColor" viewBox="0 0 64 64">
  <path fill="#000" d="M7 42.36c.56 0 1-.44 1-1v-4c0-.56-.44-1-1-1s-1 .44-1 1v4c0 .56.44 1 1 1Zm50 .54c-.56 0-1 .44-1 1v.82l-.56.26c-.5.24-.72.82-.48 1.32.16.36.54.58.9.58.14 0 .28-.02.42-.1l1.74-.8v-2.1c0-.56-.44-1-1-1l-.02.02Zm-3-.86V42h-.1l.1.04Zm-36.84 6.9-3.64-1.68c-.14-.06-.28-.1-.42-.1-.38 0-.74.22-.9.58-.24.5 0 1.1.48 1.32h.04s.02 0 .04.02l3.4 1.56c.14.06.28.1.42.1.38 0 .74-.22.9-.58.24-.5 0-1.1-.48-1.32l.16.1ZM57 34.9c-.56 0-1 .44-1 1v4c0 .56.44 1 1 1s1-.44 1-1v-4c0-.56-.44-1-1-1ZM9.9 45.6l-3.06-1.4-.1.22c-.42.12-.74.5-.74.96v.64l3.06 1.4c.14.06.28.1.42.1.38 0 .74-.22.9-.58.24-.5 0-1.1-.48-1.32v-.02Zm.72-29.64c-.14 0-.28.02-.42.1 0 0-.8.36-1.64.76h-.04l-1.92.88c-.34.16-.54.48-.58.82v.18c0 .12.04.22.08.34.16.36.54.58.9.58.14 0 .28-.02.42-.1l3.64-1.68c.5-.24.72-.82.48-1.32-.16-.36-.54-.58-.9-.58l-.02.02Z"/>
  <path fill="#000" d="M32 0 0 14v36l32 14 32-14V14L32 0Zm30 48.7L32 61.82 2 48.7V15.3L32 2.18 62 15.3v33.4Z"/>
  <path fill="#000" d="m31.68 55.66-3.64-1.68c-.14-.06-.28-.1-.42-.1-.38 0-.74.22-.9.58-.24.5 0 1.1.48 1.32l3.64 1.68c.14.06.28.1.42.1.38 0 .74-.22.9-.58.24-.5 0-1.1-.48-1.32Zm20.54-9.1c-.14 0-.28.02-.42.1l-3.64 1.68c-.5.24-.72.82-.48 1.32.16.36.54.58.9.58.14 0 .28-.02.42-.1l2.08-.96c.78-.36 1.48-.68 1.48-.68.5-.24.72-.82.48-1.32-.16-.36-.54-.58-.9-.58l.08-.04Zm-7.26 3.36c-.14 0-.28.02-.42.1L40.9 51.7c-.5.24-.72.82-.48 1.32.16.36.54.58.9.58.14 0 .28-.02.42-.1l.68-.32s.04-.02.06-.04c1.08-.5 2.78-1.28 2.78-1.28.5-.24.72-.82.48-1.32-.16-.36-.54-.58-.9-.58l.12-.04Zm-7.28 3.36c-.14 0-.28.02-.42.1l-3.64 1.68c-.5.24-.72.82-.48 1.32.16.36.54.58.9.58.14 0 .28-.02.42-.1 0 0 .8-.36 1.64-.76h.04l1.92-.88c.5-.24.72-.82.48-1.32-.16-.36-.54-.58-.9-.58l.04-.04Zm-13.26-.98-3.64-1.68c-.14-.06-.28-.1-.42-.1-.38 0-.74.22-.9.58-.24.5 0 1.1.48 1.32l1.84.84 1.74.8c.14.06.28.1.42.1.38 0 .74-.22.9-.58.24-.5 0-1.1-.48-1.32l.06.04Zm19.94-38.38.32.16c-.4.14-.7.5-.7.94 0 .56.44 1 1 1s1-.44 1-1c0-.14-.02-.26-.08-.38l2.08.96c.14.06.28.1.42.1.38 0 .74-.22.9-.58.24-.5 0-1.1-.48-1.32 0 0-.6-.28-1.3-.6l-2.26-1.04c-.14-.06-.28-.1-.42-.1-.38 0-.74.22-.9.58-.24.5 0 1.1.48 1.32l-.06-.04Zm-22.84-.98c.14 0 .28-.02.42-.1l3.64-1.68c.5-.24.72-.82.48-1.32-.16-.36-.54-.58-.9-.58-.14 0-.28.02-.42.1 0 0-.22.1-.56.26h-.02l-2.92 1.34c-.5.24-.72.82-.48 1.32.16.36.54.58.9.58l-.14.08Zm11.8 21.62 14.52 6.7c.5.24 1.1 0 1.32-.48.12-.26.08-.54-.04-.8.48-.06.86-.46.86-.98 0-.56-.44-1-1-1s-1 .44-1 1c0 .1.02.2.06.3l-4.12-1.96c.04-.1.06-.22.06-.34 0-.56-.44-1-1-1-.36 0-.68.2-.84.5l-1.08-.52c.52-.04.94-.46.94-.98s-.44-1-1-1-1 .44-1 1c0 .22.08.42.2.58l-4.36-2.06c.1-.16.16-.32.16-.52 0-.56-.44-1-1-1-.44 0-.8.28-.94.68l-.06-.04V17c0-.56-.44-1-1-1s-1 .44-1 1v15.86h-.08l-14.66 6.4c-.5.22-.74.82-.52 1.32.22.5.82.74 1.32.52l14.66-6.4c.16-.06.28-.18.38-.32.06.06.14.12.22.16v.02ZM14.26 16.28c.14 0 .28-.02.42-.1l3.64-1.68c.5-.24.72-.82.48-1.32-.16-.36-.54-.58-.9-.58-.14 0-.28.02-.42.1 0 0-.5.24-1.14.52h-.04l-2.38 1.1c-.5.24-.72.82-.48 1.32.16.36.54.58.9.58l-.08.06Zm14.1-8.6c-.5.24-.72.82-.48 1.32.16.36.54.58.9.58.14 0 .28-.02.42-.1L32 8.2l1.48.68c.14.06.28.1.42.1.38 0 .74-.22.9-.58.24-.5 0-1.1-.48-1.32l-.92-.42-1.38-.64-3.64 1.68-.02-.02Zm23.26 9.58 3.64 1.68c.14.06.28.1.42.1.38 0 .74-.22.9-.58.24-.5 0-1.1-.48-1.32l-1.72-.8-1.86-.86c-.14-.06-.28-.1-.42-.1-.38 0-.74.22-.9.58-.24.5 0 1.1.48 1.32l-.06-.02ZM7 34.36c.56 0 1-.44 1-1v-4c0-.56-.44-1-1-1s-1 .44-1 1v4c0 .56.44 1 1 1ZM56 19.9v4c0 .56.44 1 1 1s1-.44 1-1v-4c0-.56-.44-1-1-1s-1 .44-1 1ZM7 26.36c.56 0 1-.44 1-1v-4c0-.56-.44-1-1-1s-1 .44-1 1v4c0 .56.44 1 1 1Zm50 .54c-.56 0-1 .44-1 1v4c0 .56.44 1 1 1s1-.44 1-1v-4c0-.56-.44-1-1-1ZM35 14a1 1 0 1 0 0-2 1 1 0 0 0 0 2Zm2-2c.56 0 1-.44 1-1v-.04l2.74 1.26c.14.06.28.1.42.1.38 0 .74-.22.9-.58.24-.5 0-1.1-.48-1.32 0 0-.34-.16-.82-.38l-2.74-1.26c-.14-.06-.28-.1-.42-.1-.38 0-.74.22-.9.58-.12.28-.1.58 0 .84-.36.14-.64.5-.64.92 0 .56.44 1 1 1L37 12Z"/>
  <path fill="#000" d="M39 14a1 1 0 1 0 0-2 1 1 0 0 0 0 2Zm-4 4a1 1 0 1 0 0-2 1 1 0 0 0 0 2Zm2-2a1 1 0 1 0 0-2 1 1 0 0 0 0 2Zm2 2a1 1 0 1 0 0-2 1 1 0 0 0 0 2Zm-4 4a1 1 0 1 0 0-2 1 1 0 0 0 0 2Zm2-2a1 1 0 1 0 0-2 1 1 0 0 0 0 2Zm2 2a1 1 0 1 0 0-2 1 1 0 0 0 0 2Zm-4 4a1 1 0 1 0 0-2 1 1 0 0 0 0 2Zm2-2a1 1 0 1 0 0-2 1 1 0 0 0 0 2Zm2 2a1 1 0 1 0 0-2 1 1 0 0 0 0 2Zm-4 4a1 1 0 1 0 0-2 1 1 0 0 0 0 2Zm2-2a1 1 0 1 0 0-2 1 1 0 0 0 0 2Zm2 2a1 1 0 1 0 0-2 1 1 0 0 0 0 2Zm2-14a1 1 0 1 0 0-2 1 1 0 0 0 0 2Zm0 4a1 1 0 1 0 0-2 1 1 0 0 0 0 2Zm0 4a1 1 0 1 0 0-2 1 1 0 0 0 0 2Zm0 4a1 1 0 1 0 0-2 1 1 0 0 0 0 2Zm0 4a1 1 0 1 0 0-2 1 1 0 0 0 0 2Zm2-14a1 1 0 1 0 0-2 1 1 0 0 0 0 2Zm0 4a1 1 0 1 0 0-2 1 1 0 0 0 0 2Zm0 4a1 1 0 1 0 0-2 1 1 0 0 0 0 2Zm0 4a1 1 0 1 0 0-2 1 1 0 0 0 0 2Zm0 4a1 1 0 1 0 0-2 1 1 0 0 0 0 2Zm2-14a1 1 0 1 0 0-2 1 1 0 0 0 0 2Zm2-2a1 1 0 1 0 0-2 1 1 0 0 0 0 2Zm-2 6a1 1 0 1 0 0-2 1 1 0 0 0 0 2Zm0 4a1 1 0 1 0 0-2 1 1 0 0 0 0 2Zm0 4a1 1 0 1 0 0-2 1 1 0 0 0 0 2Zm0 4a1 1 0 1 0 0-2 1 1 0 0 0 0 2Zm2-14a1 1 0 1 0 0-2 1 1 0 0 0 0 2Zm2-2a1 1 0 1 0 0-2 1 1 0 0 0 0 2Zm-2 6a1 1 0 1 0 0-2 1 1 0 0 0 0 2Zm0 4a1 1 0 1 0 0-2 1 1 0 0 0 0 2Zm0 4a1 1 0 1 0 0-2 1 1 0 0 0 0 2Zm0 4a1 1 0 1 0 0-2 1 1 0 0 0 0 2Zm2-14a1 1 0 1 0 0-2 1 1 0 0 0 0 2Zm2-2a1 1 0 1 0 0-2 1 1 0 0 0 0 2Zm-2 6a1 1 0 1 0 0-2 1 1 0 0 0 0 2Zm0 4a1 1 0 1 0 0-2 1 1 0 0 0 0 2Zm0 4a1 1 0 1 0 0-2 1 1 0 0 0 0 2Zm2-10a1 1 0 1 0 0-2 1 1 0 0 0 0 2Zm0 4a1 1 0 1 0 0-2 1 1 0 0 0 0 2Zm0 4a1 1 0 1 0 0-2 1 1 0 0 0 0 2Zm0 4a1 1 0 1 0 0-2 1 1 0 0 0 0 2Zm0 4a1 1 0 1 0 0-2 1 1 0 0 0 0 2Zm2-18a1 1 0 1 0 0-2 1 1 0 0 0 0 2Zm2-2a1 1 0 1 0 0-2 1 1 0 0 0 0 2Zm-2-2a1 1 0 1 0 0-2 1 1 0 0 0 0 2Zm0 8a1 1 0 1 0 0-2 1 1 0 0 0 0 2Zm0 4a1 1 0 1 0 0-2 1 1 0 0 0 0 2Zm0 4a1 1 0 1 0 0-2 1 1 0 0 0 0 2Zm0 4a1 1 0 1 0 0-2 1 1 0 0 0 0 2Zm2-14a1 1 0 1 0 0-2 1 1 0 0 0 0 2Zm0 4a1 1 0 1 0 0-2 1 1 0 0 0 0 2Zm0 4a1 1 0 1 0 0-2 1 1 0 0 0 0 2Zm0 4a1 1 0 1 0 0-2 1 1 0 0 0 0 2Zm0 4a1 1 0 1 0 0-2 1 1 0 0 0 0 2ZM37 32a1 1 0 1 0 0-2 1 1 0 0 0 0 2Zm2 2a1 1 0 1 0 0-2 1 1 0 0 0 0 2Z"/>
</svg>
