<svg xmlns="http://www.w3.org/2000/svg" fill="currentColor" viewBox="0 0 65 65">
  <path fill="#000" d="M54.22 2 49.3 9.04c-.54-.4-1.1-.76-1.66-1.12L51.78 2h2.44ZM41.06 2l-.76 2.8c-.64-.16-1.3-.3-1.96-.42l.64-2.4h2.08m-10.7 0 .18 2h-.56c-.48 0-.94 0-1.44.04l-.18-2.04h2Zm-11.26 0 1.72 3.7c-.62.24-1.24.5-1.84.78L16.9 1.98h2.2Zm-15.7 0 8.96 8.96c-.48.46-.96.92-1.42 1.42L2 3.42V2h1.42M62 9.78v2.44l-5.92 4.14c-.36-.56-.72-1.12-1.12-1.66L62 9.78ZM2 16.9l4.48 2.08c-.28.6-.54 1.22-.78 1.84L2 19.1v-2.2Zm60 6.02V25l-2.4.64c-.12-.66-.26-1.32-.42-1.96l2.8-.76M2 28.38l2.04.18C4 29.06 4 29.54 4 30v.56l-2-.18v-2Zm58 5.08 2 .18v2l-2.04-.18c.04-.5.04-.98.04-1.44v-.56ZM4.4 38.38c.12.66.26 1.32.42 1.96l-2.8.76v-2.08l2.4-.64m53.9 4.8 3.7 1.72v2.2l-4.48-2.08c.28-.6.54-1.22.78-1.84ZM7.94 47.66c.36.56.72 1.12 1.12 1.66l-7.04 4.92V51.8l5.92-4.14Zm45.12 3.98 8.96 8.96v1.42H60.6l-8.96-8.96c.48-.46.96-.92 1.42-1.42Zm-38.34 3.34c.54.4 1.1.76 1.66 1.12l-4.14 5.92H9.8l4.92-7.04Zm30.3 2.56 2.08 4.48h-2.2l-1.72-3.7c.62-.24 1.24-.5 1.84-.78ZM23.7 59.22c.64.16 1.3.3 1.96.42l-.64 2.4h-2.08l.76-2.8m11.78.76.18 2.04h-2l-.18-2h.56c.48 0 .94 0 1.44-.04ZM58.06 0h-7.32l-6 8.58c1.8.9 3.48 2.04 4.98 3.34L58.06 0ZM43.68 0h-6.22l-1.64 6.1c2.04.16 4.02.58 5.88 1.22l1.96-7.3.02-.02ZM32.22 0H26.2l.54 6.26C27.82 6.12 28.9 6 30 6h2.74l-.52-6ZM20.4 0h-6.62l4.3 9.22c1.72-1 3.58-1.78 5.54-2.32L20.4 0ZM4.24 0H0v4.24l11.08 11.08c1.24-1.58 2.66-3 4.24-4.24L4.24 0ZM64 5.94 52.08 14.3c1.32 1.5 2.44 3.18 3.34 4.98l8.58-6V5.94ZM0 13.76v6.62l6.9 3.22c.54-1.96 1.32-3.82 2.32-5.54L0 13.76Zm64 6.56-7.3 1.96c.64 1.88 1.06 3.84 1.22 5.88l6.1-1.64V20.3l-.02.02ZM0 26.18v6.02l6 .52v-2.74c0-1.1.1-2.2.26-3.26L0 26.18Zm58 5.08V34c0 1.1-.1 2.2-.26 3.26l6.26.54v-6.02l-6-.52ZM6.1 35.84 0 37.48v6.22l7.3-1.96c-.64-1.88-1.06-3.84-1.22-5.88l.02-.02Zm51 4.56c-.54 1.96-1.32 3.82-2.32 5.54l9.22 4.3v-6.62l-6.9-3.22ZM8.58 44.74l-8.58 6v7.32l11.92-8.36c-1.32-1.5-2.44-3.18-3.34-4.98v.02Zm44.34 3.94c-1.24 1.58-2.66 3-4.24 4.24L59.76 64H64v-4.24L52.92 48.68Zm-38.64 3.4L5.92 64h7.32l6-8.58c-1.8-.9-3.48-2.04-4.98-3.34h.02Zm31.64 2.7c-1.72 1-3.58 1.78-5.54 2.32L43.6 64h6.62l-4.3-9.22ZM22.26 56.7 20.3 64h6.22l1.64-6.1c-2.04-.16-4.02-.58-5.88-1.22l-.02.02Zm14.98 1.06c-1.08.14-2.16.26-3.26.26h-2.74l.52 6h6.02l-.54-6.26Z"/>
</svg>
