<svg xmlns="http://www.w3.org/2000/svg" fill="currentColor" viewBox="0 0 65 64">
  <path fill="#231F20" d="M13.18 64h-.74c-.56 0-1-.46-.98-1.02 0-.56.46-1 1-1h.74c15.22 0 29.84-5.68 39.24-15.26 6.4-6.52 9.78-14.32 9.56-21.94C61.62 12 48.38 2.2 31.18 2h-.42C17.38 2 4.98 9.48 2.4 19.16c-.9 3.38-.26 6.66 1.88 9.5 3.16 4.18 9.22 6.74 16.2 6.82 9.7.18 18.46-5.82 19-12.94.14-1.94-.52-3.76-1.92-5.32-2.14-2.34-5.82-3.78-9.82-3.82-5.52 0-10.62 3.08-11.4 7.02-.24 1.16.06 2.3.84 3.26 1.22 1.52 3.52 2.44 6.12 2.48 3.46 0 6.78-2.04 7.1-4.54.1-.8-.26-1.38-.58-1.74-.76-.86-2.1-1.38-3.62-1.4-.56 0-1-.46-.98-1.02.02-.56.5-1.08 1.02-1 2.1.02 3.96.78 5.1 2.08.82.94 1.2 2.12 1.06 3.3-.42 3.52-4.52 6.3-9.1 6.3-3.24-.04-6.02-1.22-7.66-3.22-1.16-1.42-1.6-3.18-1.24-4.92.96-4.86 6.74-8.64 13.2-8.64h.2c4.62.06 8.74 1.68 11.28 4.48 1.8 1.96 2.64 4.32 2.44 6.82-.62 8.06-10.08 14.78-20.74 14.8h-.3c-7.7-.1-14.18-2.86-17.78-7.62C.2 26.58-.6 22.6.46 18.64 3.26 8.14 16.52 0 30.76 0h.44C49.48.22 63.58 10.84 64 24.72c.24 8.18-3.36 16.5-10.14 23.4-9.76 9.96-24.92 15.86-40.68 15.86V64Z"/>
</svg>
