{
    "asset" : {
        "extras" : {
            "copyright": "Copyright (C) 2024 The Qt Company Ltd.",
            "license": "SPDX-License-Identifier: LicenseRef-Qt-Commercial OR BSD-3-Clause"
        },
        "generator" : "Khronos glTF Blender I/O v1.7.33",
        "version" : "2.0"
    },
    "scene" : 0,
    "scenes" : [
        {
            "name" : "Scene",
            "nodes" : [
                0,
                1,
                2
            ]
        }
    ],
    "nodes" : [
        {
            "mesh" : 0,
            "name" : "Arrow",
            "translation" : [
                0,
                0,
                -20
            ]
        },
        {
            "mesh" : 1,
            "name" : "Rotate"
        },
        {
            "mesh" : 2,
            "name" : "Resize",
            "translation" : [
                0,
                0,
                20
            ]
        }
    ],
    "meshes" : [
        {
            "name" : "Arrow",
            "primitives" : [
                {
                    "attributes" : {
                        "POSITION" : 0,
                        "NORMAL" : 1,
                        "TEXCOORD_0" : 2
                    },
                    "indices" : 3
                }
            ]
        },
        {
            "name" : "Rotate",
            "primitives" : [
                {
                    "attributes" : {
                        "POSITION" : 4,
                        "NORMAL" : 5,
                        "TEXCOORD_0" : 6
                    },
                    "indices" : 7
                }
            ]
        },
        {
            "name" : "Resize",
            "primitives" : [
                {
                    "attributes" : {
                        "POSITION" : 8,
                        "NORMAL" : 9,
                        "TEXCOORD_0" : 10
                    },
                    "indices" : 11
                }
            ]
        }
    ],
    "accessors" : [
        {
            "bufferView" : 0,
            "componentType" : 5126,
            "count" : 195,
            "max" : [
                3,
                13.000000953674316,
                3
            ],
            "min" : [
                -3,
                0,
                -3
            ],
            "type" : "VEC3"
        },
        {
            "bufferView" : 1,
            "componentType" : 5126,
            "count" : 195,
            "type" : "VEC3"
        },
        {
            "bufferView" : 2,
            "componentType" : 5126,
            "count" : 195,
            "type" : "VEC2"
        },
        {
            "bufferView" : 3,
            "componentType" : 5123,
            "count" : 558,
            "type" : "SCALAR"
        },
        {
            "bufferView" : 4,
            "componentType" : 5126,
            "count" : 595,
            "max" : [
                7.450000286102295,
                2.999999761581421,
                7.450000286102295
            ],
            "min" : [
                -7.450000286102295,
                -3.000000476837158,
                -9
            ],
            "type" : "VEC3"
        },
        {
            "bufferView" : 5,
            "componentType" : 5126,
            "count" : 595,
            "type" : "VEC3"
        },
        {
            "bufferView" : 6,
            "componentType" : 5126,
            "count" : 595,
            "type" : "VEC2"
        },
        {
            "bufferView" : 7,
            "componentType" : 5123,
            "count" : 2838,
            "type" : "SCALAR"
        },
        {
            "bufferView" : 8,
            "componentType" : 5126,
            "count" : 54,
            "max" : [
                1.9100219011306763,
                10.346993446350098,
                1.9100219011306763
            ],
            "min" : [
                -1.9100219011306763,
                0,
                -1.9100219011306763
            ],
            "type" : "VEC3"
        },
        {
            "bufferView" : 9,
            "componentType" : 5126,
            "count" : 54,
            "type" : "VEC3"
        },
        {
            "bufferView" : 10,
            "componentType" : 5126,
            "count" : 54,
            "type" : "VEC2"
        },
        {
            "bufferView" : 11,
            "componentType" : 5123,
            "count" : 84,
            "type" : "SCALAR"
        }
    ],
    "bufferViews" : [
        {
            "buffer" : 0,
            "byteLength" : 2340,
            "byteOffset" : 0
        },
        {
            "buffer" : 0,
            "byteLength" : 2340,
            "byteOffset" : 2340
        },
        {
            "buffer" : 0,
            "byteLength" : 1560,
            "byteOffset" : 4680
        },
        {
            "buffer" : 0,
            "byteLength" : 1116,
            "byteOffset" : 6240
        },
        {
            "buffer" : 0,
            "byteLength" : 7140,
            "byteOffset" : 7356
        },
        {
            "buffer" : 0,
            "byteLength" : 7140,
            "byteOffset" : 14496
        },
        {
            "buffer" : 0,
            "byteLength" : 4760,
            "byteOffset" : 21636
        },
        {
            "buffer" : 0,
            "byteLength" : 5676,
            "byteOffset" : 26396
        },
        {
            "buffer" : 0,
            "byteLength" : 648,
            "byteOffset" : 32072
        },
        {
            "buffer" : 0,
            "byteLength" : 648,
            "byteOffset" : 32720
        },
        {
            "buffer" : 0,
            "byteLength" : 432,
            "byteOffset" : 33368
        },
        {
            "buffer" : 0,
            "byteLength" : 168,
            "byteOffset" : 33800
        }
    ],
    "buffers" : [
        {
            "byteLength" : 33968,
            "uri" : "data:application/octet-stream;base64,"
        }
    ]
}
