<svg xmlns="http://www.w3.org/2000/svg" fill="currentColor" viewBox="0 0 64 64">
  <g clip-path="url(#a)">
    <path fill="#000" d="M30.02 23.4v-4h-4v4h4Zm-14 15.2v6h4v-6h-4Zm-8-19.2v4h4v-4h-4Zm26 19.2v6h4v-6h-4ZM57.12 0H6.88A6.88 6.88 0 0 0 0 6.88v50.26c0 3.8 3.08 6.88 6.88 6.88h50.26c3.8 0 6.88-3.08 6.88-6.88V6.88c0-3.8-3.08-6.88-6.88-6.88h-.02ZM50 21.4h6v2h-6v-2ZM12.02 46.6h-2v-4h-4v4h-2v-10h2v4h4v-4h2v10Zm0-21.2h-4v2h-2v-10h6v2h2v4h-2v2Zm10 19.2h-2v2h-4v-2h-2v-6h2v-2h4v2h2v6Zm0-17.2h-6v-10h2v8h4v2Zm8 19.2h-6v-10h2v8h4v2Zm-4-21.2v2h-2v-8h2v-2h4v2h2v8h-2v-2h-4Zm14 19.2h-2v2h-6v-10h6v2h2v6Zm0-25.2h-4v6h4v2h-4v-2h-2v-6h2v-2h4v2Zm8 19.2h-4v2h4v2h-4v2h4v2h-6v-10h6v2Zm0-19.2h-4v2h4v2h-4v2h4v2h-6v-10h6v2Zm10 23.2h-2v2h2v2h-2v-2h-4v2h-2v-10h6v2h2v4Zm-6-4v4h4v-4h-4Z"/>
  </g>
  <defs>
    <clipPath id="a">
      <path fill="#fff" d="M0 0h64v64H0z"/>
    </clipPath>
  </defs>
</svg>
