<?xml version="1.0" encoding="UTF-8" standalone="no"?>
<svg
   version="1.1"
   viewBox="-5 -10 128 128"
   id="svg2"
   sodipodi:docname="attach.svg"
   width="128"
   height="128"
   inkscape:version="1.4 (e7c3feb100, 2024-10-09)"
   xmlns:inkscape="http://www.inkscape.org/namespaces/inkscape"
   xmlns:sodipodi="http://sodipodi.sourceforge.net/DTD/sodipodi-0.dtd"
   xmlns="http://www.w3.org/2000/svg"
   xmlns:svg="http://www.w3.org/2000/svg">
  <defs
     id="defs2" />
  <sodipodi:namedview
     id="namedview2"
     pagecolor="#505050"
     bordercolor="#eeeeee"
     borderopacity="1"
     inkscape:showpageshadow="0"
     inkscape:pageopacity="0"
     inkscape:pagecheckerboard="0"
     inkscape:deskcolor="#505050"
     inkscape:zoom="1.524208"
     inkscape:cx="-61.343336"
     inkscape:cy="22.962746"
     inkscape:window-width="1408"
     inkscape:window-height="796"
     inkscape:window-x="0"
     inkscape:window-y="0"
     inkscape:window-maximized="1"
     inkscape:current-layer="svg2" />
  <path
     d="m 71.074515,95.6945 c -7.306102,7.30611 -17.606678,10.64561 -28.174698,8.77993 -4.30106,-0.7578 -8.419364,-2.45102 -12.020171,-4.928268 C 21.770465,93.26435 16.675231,83.187738 16.972243,72.380235 17.202201,64.065494 20.907523,56.221157 26.792114,50.335764 L 68.428697,8.6991811 C 76.037966,1.0533875 88.606806,1.2832376 95.959869,9.3785768 102.83744,16.951322 102.16328,28.736558 94.925089,35.96921 L 57.615253,73.284396 c -1.322213,1.322214 -3.119967,1.965098 -4.985794,1.829168 -1.897132,-0.167236 -3.559064,-1.118398 -4.677409,-2.675787 -1.729896,-2.409278 -1.222915,-6.172104 1.186337,-8.576164 L 68.861613,44.138387 c 1.222914,-1.222915 1.222914,-3.203586 0,-4.426554 l -4.525826,-4.525826 c -1.222915,-1.222915 -3.203586,-1.222915 -4.426555,0 L 40.191358,54.909232 c -6.778303,6.778304 -7.865342,17.529081 -2.50855,24.949038 3.287204,4.578137 8.37227,7.457686 13.932823,7.896648 5.591993,0.475581 11.01675,-1.557441 14.983069,-5.492721 L 103.7413,45.119598 C 115.86074,33.000156 116.80141,13.256327 105.15759,0.6761149 92.91279,-12.551236 72.143733,-12.84865 59.512681,-0.2175578 L 17.306155,41.920735 C 7.5280268,51.698863 2.8769739,65.27099 4.7163099,79.2881 c 1.0399981,7.943742 4.2906243,15.495482 9.3287301,21.72472 8.665001,10.71358 21.265817,16.67149 34.821353,16.61396 11.952205,-0.0523 23.3342,-5.15825 31.785673,-13.60905 L 111.04232,73.627472 c 1.22291,-1.222914 1.22291,-3.203585 0,-4.426554 l -4.52583,-4.525826 c -1.22291,-1.222915 -3.20358,-1.222915 -4.42655,0 z"
     id="path1"
     style="stroke-width:1.33789" />
</svg>
