<?xml version="1.0" encoding="UTF-8" standalone="no"?>
<svg
   version="1.1"
   viewBox="-10 0 64 64"
   id="svg147"
   sodipodi:docname="generic_file.svg"
   width="64"
   height="64"
   inkscape:version="1.4 (e7c3feb100, 2024-10-09)"
   xmlns:inkscape="http://www.inkscape.org/namespaces/inkscape"
   xmlns:sodipodi="http://sodipodi.sourceforge.net/DTD/sodipodi-0.dtd"
   xmlns="http://www.w3.org/2000/svg"
   xmlns:svg="http://www.w3.org/2000/svg">
  <defs
     id="defs151" />
  <sodipodi:namedview
     id="namedview149"
     pagecolor="#ffffff"
     bordercolor="#666666"
     borderopacity="1.0"
     inkscape:pageshadow="2"
     inkscape:pageopacity="0.0"
     inkscape:pagecheckerboard="0"
     showgrid="false"
     inkscape:zoom="7.7946425"
     inkscape:cx="45.22337"
     inkscape:cy="35.665523"
     inkscape:window-width="1946"
     inkscape:window-height="1012"
     inkscape:window-x="0"
     inkscape:window-y="0"
     inkscape:window-maximized="1"
     inkscape:current-layer="svg147"
     inkscape:showpageshadow="2"
     inkscape:deskcolor="#d1d1d1" />
  <path
     fill="currentColor"
     d="m 47.826343,17.135528 q 0.49865,0.498649 0.9973,1.282242 H 32.012019 V 1.6061477 q 0.783595,0.4986498 1.282243,0.9972997 z m -16.954095,5.841326 h 19.376108 v 37.612441 q 0,1.424715 -0.997299,2.422014 -0.9973,0.9973 -2.422013,0.9973 H -1.0413393 q -1.4247137,0 -2.4220133,-0.9973 -0.9972999,-0.997299 -0.9972999,-2.422014 V 3.600747 q 0,-1.4247138 0.9972999,-2.4220133 0.9972996,-0.99729965 2.4220133,-0.99729965 H 27.452935 V 19.557541 q 0,1.424713 0.9973,2.422014 0.997299,0.997299 2.422013,0.997299 z m 5.698857,26.214732 v -2.279542 q 0,-0.49865 -0.320561,-0.81921 -0.320561,-0.320561 -0.819211,-0.320561 H 10.35637 q -0.4986495,0 -0.8192101,0.320561 -0.3205606,0.32056 -0.3205606,0.81921 v 2.279542 q 0,0.49865 0.3205606,0.819211 0.3205606,0.320559 0.8192101,0.320559 h 25.074963 q 0.49865,0 0.819211,-0.320559 0.320561,-0.320561 0.320561,-0.819211 z m 0,-9.118168 v -2.279542 q 0,-0.498649 -0.320561,-0.81921 -0.320561,-0.32056 -0.819211,-0.32056 H 10.35637 q -0.4986495,0 -0.8192101,0.32056 -0.3205606,0.320561 -0.3205606,0.81921 v 2.279542 q 0,0.49865 0.3205606,0.81921 0.3205606,0.320561 0.8192101,0.320561 h 25.074963 q 0.49865,0 0.819211,-0.320561 0.320561,-0.32056 0.320561,-0.81921 z m 0,-9.118167 v -2.279542 q 0,-0.49865 -0.320561,-0.81921 -0.320561,-0.320562 -0.819211,-0.320562 H 10.35637 q -0.4986495,0 -0.8192101,0.320562 -0.3205606,0.32056 -0.3205606,0.81921 v 2.279542 q 0,0.498649 0.3205606,0.81921 0.3205606,0.32056 0.8192101,0.32056 h 25.074963 q 0.49865,0 0.819211,-0.32056 0.320561,-0.320561 0.320561,-0.81921 z"
     id="path145"
     style="fill:#a1a1a1;stroke-width:0.0356179" />
</svg>
