<?xml version="1.0" encoding="UTF-8" standalone="no"?>
<svg
   version="1.1"
   x="0px"
   y="0px"
   viewBox="0 0 128 128"
   xml:space="preserve"
   id="svg3"
   sodipodi:docname="send.svg"
   width="128"
   height="128"
   inkscape:version="1.4 (e7c3feb100, 2024-10-09)"
   xmlns:inkscape="http://www.inkscape.org/namespaces/inkscape"
   xmlns:sodipodi="http://sodipodi.sourceforge.net/DTD/sodipodi-0.dtd"
   xmlns="http://www.w3.org/2000/svg"
   xmlns:svg="http://www.w3.org/2000/svg"><defs
     id="defs3" /><sodipodi:namedview
     id="namedview3"
     pagecolor="#505050"
     bordercolor="#eeeeee"
     borderopacity="1"
     inkscape:showpageshadow="0"
     inkscape:pageopacity="0"
     inkscape:pagecheckerboard="0"
     inkscape:deskcolor="#505050"
     inkscape:zoom="3.927788"
     inkscape:cx="30.678845"
     inkscape:cy="56.520362"
     inkscape:window-width="1798"
     inkscape:window-height="954"
     inkscape:window-x="0"
     inkscape:window-y="0"
     inkscape:window-maximized="1"
     inkscape:current-layer="svg3" /><g
     id="g2"
     transform="matrix(4.1895784,0,0,4.1895784,-0.00107259,1.9237268)"><path
       d="m 0.838,15.007 c -1.157,0.607 -1.109,1.496 0.104,1.976 l 3.594,1.422 c 1.214,0.482 3.051,0.219 4.08,-0.584 L 24.223,5.513 c 1.026,-0.807 1.136,-0.688 0.245,0.266 L 12.13,18.985 c -0.894,0.951 -0.63,2.119 0.588,2.59 l 0.421,0.164 c 1.218,0.471 3.203,1.262 4.413,1.754 l 3.986,1.623 c 1.211,0.492 2.505,-0.088 2.849,-1.348 l 6.075,-22.33 c 0.343,-1.26 -0.323,-1.795 -1.48,-1.189 z"
       id="path1" /><path
       d="m 10.701,29.626 c -0.071,0.213 2.458,-3.662 2.458,-3.662 0.715,-1.092 0.309,-2.395 -0.899,-2.889 L 9.502,21.946 c -1.208,-0.494 -1.787,0.086 -1.287,1.293 0,0 2.559,6.168 2.486,6.387 z"
       id="path2" /></g></svg>
