<svg xmlns="http://www.w3.org/2000/svg" fill="currentColor" viewBox="0 0 56 64">
  <path fill="#000" d="M28 0S0 20.32 0 38s12.54 26 28 26 28-8.32 28-26S28 0 28 0Zm24 42c-1.1 0-2 .9-2 2s.9 2 2 2c.38 0 .72-.14 1.02-.32-.44 1.6-1.04 3.1-1.76 4.48-.74.3-1.26 1-1.26 1.84 0 .08.04.14.04.22-.46.66-.96 1.28-1.5 1.88-.18-.06-.36-.12-.56-.12-1.1 0-2 .9-2 2 0 .14.04.28.08.42-.74.6-1.52 1.14-2.34 1.64-.54.08-1 .34-1.32.78-1.4.72-2.94 1.28-4.54 1.76.06-.2.12-.38.12-.6 0-1.1-.9-2-2-2s-2 .9-2 2c0 .54.22 1.04.58 1.4-2.06.38-4.24.6-6.58.6s-4.52-.24-6.58-.6c.36-.36.58-.84.58-1.4 0-1.1-.9-2-2-2s-2 .9-2 2c0 .22.06.42.12.6-1.62-.48-3.16-1.04-4.54-1.76-.32-.42-.78-.7-1.32-.78-.82-.5-1.6-1.06-2.34-1.64.04-.14.08-.28.08-.42 0-1.1-.9-2-2-2-.2 0-.38.06-.56.12-.52-.6-1.04-1.22-1.5-1.88 0-.08.04-.14.04-.22 0-.84-.52-1.54-1.26-1.84-.72-1.38-1.32-2.88-1.76-4.48.3.18.64.32 1.02.32 1.1 0 2-.9 2-2s-.9-2-2-2c-.68 0-1.24.36-1.62.88-.24-1.54-.38-3.16-.38-4.88 0-.52.04-1.02.1-1.54.22.88.96 1.54 1.9 1.54 1.1 0 2-.9 2-2s-.9-2-2-2c-.74 0-1.34.42-1.68 1 .3-1.66.82-3.34 1.54-5.02.06 0 .1.04.16.04 1.1 0 2-.9 2-2 0-.5-.2-.96-.52-1.3.3-.52.58-1.06.9-1.58.36.52.94.88 1.62.88 1.1 0 2-.9 2-2 0-.96-.68-1.72-1.58-1.92C14.98 12.96 24.66 5.08 28 2.5c3.34 2.58 13.02 10.46 19.58 19.58-.9.2-1.58.96-1.58 1.92 0 1.1.9 2 2 2 .68 0 1.26-.36 1.62-.88.32.52.6 1.04.9 1.58-.3.36-.52.8-.52 1.3 0 1.1.9 2 2 2 .06 0 .1-.02.16-.04.72 1.7 1.26 3.4 1.56 5.08-.34-.6-.98-1.04-1.72-1.04-1.1 0-2 .9-2 2s.9 2 2 2c.96 0 1.72-.68 1.92-1.58.06.52.08 1.06.08 1.58 0 1.7-.14 3.32-.38 4.88-.36-.52-.94-.88-1.62-.88Z"/>
  <path fill="#000" d="M24 34a2 2 0 1 0 0-4 2 2 0 0 0 0 4Zm4 4a2 2 0 1 0 0-4 2 2 0 0 0 0 4Zm8 0a2 2 0 1 0 0-4 2 2 0 0 0 0 4Zm8 8a2 2 0 1 0 0-4 2 2 0 0 0 0 4ZM32 34a2 2 0 1 0 0-4 2 2 0 0 0 0 4Zm0 8a2 2 0 1 0 0-4 2 2 0 0 0 0 4Zm8 0a2 2 0 1 0 0-4 2 2 0 0 0 0 4Zm0-8a2 2 0 1 0 0-4 2 2 0 0 0 0 4Zm0 16a2 2 0 1 0 0-4 2 2 0 0 0 0 4Zm-4-4a2 2 0 1 0 0-4 2 2 0 0 0 0 4Zm-4 4a2 2 0 1 0 0-4 2 2 0 0 0 0 4Zm4 4a2 2 0 1 0 0-4 2 2 0 0 0 0 4Zm-8-8a2 2 0 1 0 0-4 2 2 0 0 0 0 4ZM8 42a2 2 0 1 0 0-4 2 2 0 0 0 0 4Zm8-8a2 2 0 1 0 0-4 2 2 0 0 0 0 4Zm8 8a2 2 0 1 0 0-4 2 2 0 0 0 0 4Zm-4-4a2 2 0 1 0 0-4 2 2 0 0 0 0 4Zm28 4a2 2 0 1 0 0-4 2 2 0 0 0 0 4ZM28 62a2 2 0 1 0 0-4 2 2 0 0 0 0 4ZM12 46a2 2 0 1 0 0-4 2 2 0 0 0 0 4Zm8 0a2 2 0 1 0 0-4 2 2 0 0 0 0 4Zm4 4a2 2 0 1 0 0-4 2 2 0 0 0 0 4Zm-4 4a2 2 0 1 0 0-4 2 2 0 0 0 0 4Zm-8-16a2 2 0 1 0 0-4 2 2 0 0 0 0 4Zm4 4a2 2 0 1 0 0-4 2 2 0 0 0 0 4Zm0 8a2 2 0 1 0 0-4 2 2 0 0 0 0 4Zm8-24a2 2 0 1 0 0-4 2 2 0 0 0 0 4Zm8 32a2 2 0 1 0 0-4 2 2 0 0 0 0 4Zm12-20a2 2 0 1 0 0-4 2 2 0 0 0 0 4ZM24 58a2 2 0 1 0 0-4 2 2 0 0 0 0 4Zm-8 0a2 2 0 1 0 0-4 2 2 0 0 0 0 4Zm-4-4a2 2 0 1 0 0-4 2 2 0 0 0 0 4Zm32 0a2 2 0 1 0 0-4 2 2 0 0 0 0 4Zm4-4a2 2 0 1 0 0-4 2 2 0 0 0 0 4Zm-8 8a2 2 0 1 0 0-4 2 2 0 0 0 0 4Zm-12-4a2 2 0 1 0 0-4 2 2 0 0 0 0 4Zm12-28a2 2 0 1 0 0-4 2 2 0 0 0 0 4Zm-8 0a2 2 0 1 0 0-4 2 2 0 0 0 0 4Zm12 4a2 2 0 1 0 0-4 2 2 0 0 0 0 4Zm-8 0a2 2 0 1 0 0-4 2 2 0 0 0 0 4Zm12 4a2 2 0 1 0 0-4 2 2 0 0 0 0 4ZM8 50a2 2 0 1 0 0-4 2 2 0 0 0 0 4Zm0-16a2 2 0 1 0 0-4 2 2 0 0 0 0 4Zm20-4a2 2 0 1 0 0-4 2 2 0 0 0 0 4Zm-16 0a2 2 0 1 0 0-4 2 2 0 0 0 0 4Zm8 0a2 2 0 1 0 0-4 2 2 0 0 0 0 4Zm-4-4a2 2 0 1 0 0-4 2 2 0 0 0 0 4Z"/>
</svg>
