<svg xmlns="http://www.w3.org/2000/svg" fill="currentColor" viewBox="0 0 64 64">
  <g clip-path="url(#a)">
    <path fill="#000" d="M22 52a2 2 0 1 0 0-4 2 2 0 0 0 0 4Zm-4 4a2 2 0 1 0 0-4 2 2 0 0 0 0 4Zm0 8a2 2 0 1 0 0-4 2 2 0 0 0 0 4Zm4-4a2 2 0 1 0 0-4 2 2 0 0 0 0 4Zm8-8a2 2 0 1 0 0-4 2 2 0 0 0 0 4Zm-4 4a2 2 0 1 0 0-4 2 2 0 0 0 0 4Zm0 8a2 2 0 1 0 0-4 2 2 0 0 0 0 4Zm4-4a2 2 0 1 0 0-4 2 2 0 0 0 0 4Zm8-8a2 2 0 1 0 0-4 2 2 0 0 0 0 4Zm-4 4a2 2 0 1 0 0-4 2 2 0 0 0 0 4Zm0 8a2 2 0 1 0 0-4 2 2 0 0 0 0 4Zm4-4a2 2 0 1 0 0-4 2 2 0 0 0 0 4Zm8-8a2 2 0 1 0 0-4 2 2 0 0 0 0 4Zm-4 4a2 2 0 1 0 0-4 2 2 0 0 0 0 4Zm0 8a2 2 0 1 0 0-4 2 2 0 0 0 0 4Zm4-4a2 2 0 1 0 0-4 2 2 0 0 0 0 4Zm4-36a2 2 0 1 0 0-4 2 2 0 0 0 0 4Zm0 8a2 2 0 1 0 0-4 2 2 0 0 0 0 4Zm4-4a2 2 0 1 0 0-4 2 2 0 0 0 0 4Zm0 8a2 2 0 1 0 0-4 2 2 0 0 0 0 4Zm-4 4a2 2 0 1 0 0-4 2 2 0 0 0 0 4Zm0 8a2 2 0 1 0 0-4 2 2 0 0 0 0 4Zm4-4a2 2 0 1 0 0-4 2 2 0 0 0 0 4Zm0 8a2 2 0 1 0 0-4 2 2 0 0 0 0 4Zm-4 4a2 2 0 1 0 0-4 2 2 0 0 0 0 4Zm0 8a2 2 0 1 0 0-4 2 2 0 0 0 0 4Zm4-4a2 2 0 1 0 0-4 2 2 0 0 0 0 4Zm4-36a2 2 0 1 0 0-4 2 2 0 0 0 0 4Zm0 8a2 2 0 1 0 0-4 2 2 0 0 0 0 4Zm4-4a2 2 0 1 0 0-4 2 2 0 0 0 0 4Zm0 8a2 2 0 1 0 0-4 2 2 0 0 0 0 4Zm-4 4a2 2 0 1 0 0-4 2 2 0 0 0 0 4Zm0 8a2 2 0 1 0 0-4 2 2 0 0 0 0 4Zm4-4a2 2 0 1 0 0-4 2 2 0 0 0 0 4Zm0 8a2 2 0 1 0 0-4 2 2 0 0 0 0 4Zm-4 4a2 2 0 1 0 0-4 2 2 0 0 0 0 4Zm0 8a2 2 0 1 0 0-4 2 2 0 0 0 0 4Zm4-4a2 2 0 1 0 0-4 2 2 0 0 0 0 4Z"/>
    <path fill="#000" d="M30 48h13.9c2.26 0 4.1-1.84 4.1-4.1V4.1C48 1.84 46.16 0 43.9 0H4.1C1.84 0 0 1.84 0 4.1v39.78c0 2.26 1.84 4.1 4.1 4.1H30V48ZM2 43.9V4.1C2 2.94 2.94 2 4.1 2h39.78c1.16 0 2.1.94 2.1 2.1v39.78a2.1 2.1 0 0 1-2.1 2.1H4.1a2.1 2.1 0 0 1-2.1-2.1v.02Z"/>
  </g>
  <defs>
    <clipPath id="a">
      <path fill="#fff" d="M0 0h64v64H0z"/>
    </clipPath>
  </defs>
</svg>
