<svg xmlns="http://www.w3.org/2000/svg" fill="currentColor" viewBox="0 0 65 65">
  <path fill="#000" d="M18 8h-2v8H8v2h8v8h2v-8h8v-2h-8V8Zm20 38h18v2H38v-2Z"/>
  <path fill="#000" fill-rule="evenodd" d="M4.12 0C1.84 0 0 1.84 0 4.12V59.9c0 2.28 1.84 4.12 4.12 4.12H59.9c2.28 0 4.12-1.84 4.12-4.12V4.12C64.02 1.84 62.18 0 59.9 0H4.12Zm-2 60.46c-.06-.18-.12-.38-.12-.58V4.12C2 2.96 2.94 2 4.12 2H59.9c.2 0 .4.06.58.12L2.12 60.46Zm2 1.54c-.2 0-.4-.06-.58-.12L61.88 3.54c.06.18.12.38.12.58V59.9c0 1.16-.94 2.12-2.12 2.12H4.12V62Z" clip-rule="evenodd"/>
</svg>
