<svg xmlns="http://www.w3.org/2000/svg" fill="currentColor" viewBox="0 0 64 64">
  <g clip-path="url(#a)">
    <path fill="#000" d="M47.76 36.82c-.22-1.68-.62-3.28-1.16-4.84-1.26-3.54-3.3-6.68-5.94-9.24-.48-.46-.98-.92-1.48-1.34-.58-.48-1.2-.94-1.82-1.36-.56-.38-1.16-.74-1.76-1.06-.68-.38-1.4-.74-2.12-1.04-.68-.28-1.36-.54-2.06-.76-2.34-.76-4.82-1.18-7.4-1.18-.2 0-.4.02-.62.04h-.22c-.86.02-1.72.1-2.56.22-.1 0-.22 0-.32.02h-.02C8.78 18.12 0 28.02 0 40c0 13.26 10.74 24 24 24 11.08 0 20.38-7.52 23.14-17.72 0 0 .02-.14.04-.2.5-1.94.8-3.96.8-6.06 0-1.08-.1-2.14-.24-3.18l.02-.02ZM24 62C11.86 62 2 52.14 2 40c0-9.92 6.6-18.32 15.64-21.06l-1.34 1.34c-.16 1.02-.24 2.04-.28 3.1l5.2-5.2c.92-.12 1.84-.2 2.78-.2.18 0 .38.02.56.02l-8.44 8.44c.08.82.22 1.64.38 2.44l10.66-10.66c.9.12 1.78.32 2.62.54l-12.6 12.6c.22.7.48 1.38.76 2.06l13.98-13.98c.74.3 1.48.62 2.18.98L18.98 35.54c.34.6.68 1.2 1.06 1.76l15.84-15.84c.64.42 1.26.86 1.84 1.32L21.4 39.1c.42.52.88 1 1.34 1.48l16.5-16.5c.54.52 1.06 1.06 1.54 1.64l-16.4 16.4c.5.44 1.04.84 1.58 1.24L42 27.32c.44.62.86 1.28 1.22 1.94L27.88 44.6c.6.36 1.22.68 1.86.98l14.42-14.42c.32.76.62 1.52.86 2.32L31.98 46.52c.72.26 1.44.46 2.18.66L45.6 35.74c.18.92.28 1.88.34 2.84l-9.12 9.12c.86.12 1.74.18 2.62.2l6.48-6.48c-.08 1.28-.28 2.54-.58 3.76l-2.58 2.58c.64-.08 1.26-.18 1.88-.3C41.56 55.9 33.48 61.94 24 61.94V62Z"/>
    <path fill="#000" d="M40 0c-9.98 0-18.54 6.1-22.16 14.76 1.98-.48 4.04-.76 6.16-.76 14.34 0 26 11.66 26 26 0 2.12-.28 4.18-.76 6.16C57.92 42.54 64 33.98 64 24 64 10.74 53.26 0 40 0Z"/>
  </g>
  <defs>
    <clipPath id="a">
      <path fill="#fff" d="M0 0h64v64H0z"/>
    </clipPath>
  </defs>
</svg>
