<svg xmlns="http://www.w3.org/2000/svg" fill="currentColor" viewBox="0 0 52 64">
  <path fill="#000" d="M26.8.3c-.24-.2-.52-.3-.8-.3s-.56.1-.8.3C20.84 3.9 0 21.94 0 37.86 0 55.64 11.64 64 26 64s26-8.38 26-26.14C52 21.94 31.16 3.9 26.8.3Zm.2 22.72 11.18-8.82c2.26 2.6 4.46 5.46 6.38 8.44L27 36.48V23.02Zm0 16 18.62-14.68c1.96 3.36 3.44 6.84 4.06 10.26L27 52.46V39v.02Zm9.86-26.32L27 20.46V3.08c2.28 1.96 6.02 5.38 9.86 9.6v.02ZM2 37.86c0-13.7 16.88-29.5 23-34.78v58.88c-14.42-.4-23-9.34-23-24.1Zm25 24.1V55l22.92-18.06c0 .3.08.62.08.92 0 14.78-8.58 23.7-23 24.1Z"/>
</svg>
