<svg xmlns="http://www.w3.org/2000/svg" fill="currentColor" viewBox="0 0 56 64">
  <path fill="#000" d="M28 0S0 20.32 0 38s12.54 26 28 26 28-8.32 28-26S28 0 28 0Zm0 62C11.72 62 2 53.02 2 38S22.78 6.54 28 2.5C33.22 6.54 54 23.52 54 38s-9.72 24-26 24Z"/>
  <path fill="#000" d="M39 30a.99.99 0 0 0-1.42 0L17 50.58A.99.99 0 0 0 17 52c.4.4 1.02.4 1.42 0L39 31.42c.4-.4.4-1.02 0-1.42Zm-15 3c0-2.76-2.24-5-5-5s-5 2.24-5 5 2.24 5 5 5 5-2.24 5-5Zm-8 0c0-1.66 1.34-3 3-3s3 1.34 3 3-1.34 3-3 3-3-1.34-3-3Zm21 11c-2.76 0-5 2.24-5 5s2.24 5 5 5 5-2.24 5-5-2.24-5-5-5Zm0 8c-1.66 0-3-1.34-3-3s1.34-3 3-3 3 1.34 3 3-1.34 3-3 3Zm-8.72-33.92c-5.38 5.58-14.68.12-14.76.06-.48-.28-1.08-.12-1.38.34-.28.48-.14 1.08.34 1.38.28.16 4.7 2.76 9.52 2.76 2.64 0 5.42-.78 7.7-3.16 5.28-5.48 12.36.08 12.66.3.44.34 1.06.28 1.4-.16a.991.991 0 0 0-.16-1.4c-3.02-2.42-10.1-5.58-15.34-.14l.02.02Z"/>
</svg>
