<svg xmlns="http://www.w3.org/2000/svg" fill="currentColor" viewBox="0 0 64 64">
  <path fill="#000" d="M43.9 20.1C42.94 8.84 33.5 0 22 0 9.84 0 0 9.84 0 22c0 11.5 8.84 20.94 20.1 21.9C21.06 55.16 30.5 64 42 64c12.16 0 22-9.84 22-22 0-11.5-8.84-20.94-20.1-21.9ZM20 41.9C9.9 40.9 2 32.36 2 22 2 10.98 10.98 2 22 2c10.36 0 18.9 7.92 19.9 18-12.06.06-21.84 9.82-21.9 21.9ZM42 22c0 11.02-8.98 20-20 20 0-11.02 8.98-20 20-20Zm0 40c-10.36 0-18.9-7.92-19.9-18 12.06-.06 21.84-9.82 21.9-21.9 10.1 1 18 9.54 18 19.9 0 11.02-8.98 20-20 20Z"/>
  <path fill="#000" d="M22 20.58 11.7 10.3l-1.4 1.4L20.58 22H14v2h10V14h-2v6.58Z"/>
</svg>
