<svg xmlns="http://www.w3.org/2000/svg" fill="currentColor" viewBox="0 0 64 64">
  <path fill="#000" d="M64 53.76 53.76 64h2.82L64 56.58v-2.82Zm0-6L47.76 64h2.82L64 50.58v-2.82Zm0 11.66L59.42 64h.28c2.38 0 4.3-1.92 4.3-4.3v-.28Zm0-29.66L29.76 64h2.82L64 32.58v-2.82Z"/>
  <path fill="#000" d="M43.7 0H4.3C1.92 0 0 1.92 0 4.3v39.38c0 2.38 1.92 4.3 4.3 4.3H16v2.58l2.58-2.58h3.18L16 53.74v2.82l8.58-8.58h3.18L16 59.74c0 .8.24 1.54.64 2.18l13.94-13.94h3.18L18.28 63.46c.6.32 1.28.52 2.02.52h.28l16-16h3.18l-16 16h2.82l16-16h1.1c2.38 0 4.3-1.92 4.3-4.3v-1.1l16-16v-2.82l-16 16v-3.18l16-16v-.28c0-.74-.2-1.42-.52-2.02L47.98 33.76v-3.18l13.94-13.94c-.64-.4-1.38-.64-2.18-.64L47.98 27.76v-3.18L56.56 16h-2.82l-5.76 5.76v-3.18L50.56 16h-2.58V4.3c0-2.38-1.92-4.3-4.3-4.3h.02ZM4.3 46A2.3 2.3 0 0 1 2 43.7V4.3A2.3 2.3 0 0 1 4.3 2h39.38a2.3 2.3 0 0 1 2.3 2.3v39.38a2.3 2.3 0 0 1-2.3 2.3H4.3V46ZM64 41.76 41.76 64h2.82L64 44.58v-2.82Zm0-6L35.76 64h2.82L64 38.58v-2.82Z"/>
</svg>
