<svg xmlns="http://www.w3.org/2000/svg" fill="currentColor" viewBox="0 0 65 64">
  <path fill="#000" d="M6 39.04H4V64h2V39.04Zm4-17.68H8V64h2V21.36ZM14 9.8h-2V64h2V9.8Zm4-5h-2V64h2V4.8Zm4-.78h-2V64h2V4.02Zm4 9.24h-2V64h2V13.26Zm4 16.94h-2V64h2V30.2Zm4 12.04h-2V64h2V42.24Zm4 6.42h-2V64h2V48.66Zm4 4.98h-2V64h2V53.64Zm4 2.7h-2V64h2v-7.66Zm4 2.12h-2V64h2v-5.54Zm4 2.04h-2V64h2v-3.5Zm4 1.5h-2v2h2v-2Zm4 1h-2v1h2v-1Z"/>
  <path fill="#000" d="M63.3 60.54c-9.36-3.08-16.88-8.24-19.86-10.8-7.68-6.62-10.7-19.9-13.14-30.58C27.86 8.46 25.94 0 20.28 0c-2.72 0-5.22 1.1-7.42 3.28C.1 15.8 0 61.08 0 63c0 .54.46 1 1.02 1s1.02-.44 1.02-1c0-.46.1-46.38 12.26-58.32C16.14 2.88 18.1 2 20.28 2c4.04 0 5.9 8.16 8.06 17.62 2.5 10.96 5.6 24.58 13.78 31.64 3.84 3.3 11.52 8.22 20.56 11.2.52.18 1.1-.1 1.28-.64a.986.986 0 0 0-.64-1.26l-.02-.02Z"/>
</svg>
