<svg xmlns="http://www.w3.org/2000/svg" fill="currentColor" viewBox="0 0 64 64">
  <g clip-path="url(#a)">
    <path fill="#000" d="m0 41.62 8-2.14v-2.1l-8 2.16v2.08Zm0 14.02 8-5.6v-2.46l-8 5.6v2.46Zm9.96-47.1-8-8C1.36.88.88 1.38.54 1.96l8 8c.34-.6.84-1.08 1.42-1.42ZM8.36 64h2.46l5.6-8h-2.46l-5.6 8Zm33.72-8 3.74 8h2.22l-3.74-8h-2.22Zm-9 0 .7 8h2.04l-.7-8h-2.04Zm-10.7 8h2.08l2.16-8h-2.1l-2.14 8Zm-.46-56-3.74-8h-2.22l3.74 8h2.22ZM0 18.18l8 3.74V19.7l-8-3.74v2.22Zm0 12.04 8 .7V28.9l-8-.7v2.02Zm56 4.88 8 .7v-2.02l-8-.7v2.02Zm-1.96 20.36 8 8c.6-.34 1.08-.84 1.42-1.42l-8-8c-.34.6-.84 1.08-1.42 1.42ZM56 44.3l8 3.74v-2.22l-8-3.74v2.22Zm0-30.34v2.46l8-5.6V8.36l-8 5.6Zm0 12.66 8-2.16v-2.08l-8 2.14v2.1ZM41.62 0h-2.08l-2.16 8h2.1l2.14-8Zm-10.7 8-.7-8h-2.04l.7 8h2.04Zm24.72-8h-2.46l-5.6 8h2.46l5.6-8Zm-7.86 12H16.24a4.22 4.22 0 0 0-4.22 4.22v31.54c0 2.34 1.9 4.22 4.22 4.22h31.54c2.34 0 4.22-1.9 4.22-4.22V16.22c0-2.34-1.9-4.22-4.22-4.22Zm-3.94 4c.18 0 .36.04.54.06l-5 7.14c-.52-.44-1.06-.82-1.66-1.16L41.96 16h1.88Zm-8.6 0h2.08l-1.4 5.2c-.62-.22-1.28-.4-1.94-.52L35.24 16Zm-3.62 0 .4 4.5c-.68 0-1.34.08-2 .18l-.4-4.68h2.02-.02Zm-5.98 0 2.42 5.2c-.64.24-1.24.52-1.82.84l-2.82-6.06h2.22V16Zm-7.62.6 6.58 6.58c-.52.44-1 .9-1.42 1.42l-6.58-6.58c.36-.58.84-1.08 1.42-1.42ZM16 23.42l6.06 2.82c-.34.58-.62 1.18-.84 1.82l-5.2-2.42v-2.22H16Zm0 6.16 4.68.4c-.12.66-.18 1.32-.18 2l-4.5-.4v-2.02.02Zm0 5.66 4.68-1.26c.12.68.3 1.32.52 1.94l-5.2 1.4v-2.08Zm.06 9.16c-.02-.18-.06-.36-.06-.54V42l6.04-4.24c.34.58.72 1.14 1.16 1.66l-7.14 5v-.02Zm4.1 3.6c-.18 0-.36-.04-.54-.06l5-7.14c.52.44 1.06.82 1.66 1.16L22.04 48h-1.88Zm8.6 0h-2.08l1.4-5.2c.62.22 1.28.4 1.94.52L28.76 48Zm3.62 0-.4-4.5c.68 0 1.34-.08 2-.18l.4 4.68h-2.02.02Zm5.98 0-2.42-5.2c.64-.24 1.24-.52 1.82-.84l2.82 6.06h-2.22V48Zm7.62-.6-6.58-6.58c.52-.44 1-.9 1.42-1.42l6.58 6.58c-.36.58-.84 1.08-1.42 1.42ZM48 40.58l-6.06-2.82c.34-.58.62-1.18.84-1.82l5.2 2.42v2.22H48Zm0-6.16-4.68-.4c.12-.66.18-1.32.18-2l4.5.4v2.02-.02Zm0-5.66-4.68 1.26c-.12-.68-.3-1.32-.52-1.94l5.2-1.4v2.08Zm0-6.74-6.04 4.24c-.34-.58-.72-1.14-1.16-1.66l7.14-5c.02.18.06.36.06.54v1.88Z"/>
  </g>
  <defs>
    <clipPath id="a">
      <path fill="#fff" d="M0 0h64v64H0z"/>
    </clipPath>
  </defs>
</svg>
