<svg xmlns="http://www.w3.org/2000/svg" fill="currentColor" viewBox="0 0 65 64">
  <path fill="#000" d="M63.9 3.64v-.02C63.62 2.3 62.74 1.2 61.58.58c0 0-.04 0-.04-.02-.64-.32-1.34-.52-2.1-.52H4.58C2.06 0 0 2.06 0 4.58v54.84c0 .4.06.76.16 1.12.08.34.22.66.38.96 0 0 0 .04.02.04.16.3.36.58.58.84a4.452 4.452 0 0 0 2.48 1.5h.02c.3.06.62.1.96.1h54.84a4.58 4.58 0 0 0 4.58-4.58V4.58c0-.32-.04-.64-.1-.96l-.02.02ZM62 59.42c0 1.42-1.16 2.58-2.58 2.58H58.1l3.9-3.9v1.32Zm0-4.14-6.74 6.74h-2.82L62 52.46v2.82ZM49.62 62H46.8l15.22-15.22v2.82L49.62 62ZM62 10.02l-8 8v2.82l8-8v2.82l-8 8v2.82l8-8v2.82l-8 8v2.82l8-8v2.82l-8 8v2.82l8-8v2.82l-8 8v2.82l8-8v2.82l-8.12 8.12c-.24 1.66-.84 3.22-1.74 4.56L62 41.04v2.82L43.96 61.9h-2.82L49 54.04c-1.34.9-2.9 1.5-4.56 1.74l-6.12 6.12H35.5l6-6h-2.82l-6 6h-2.82l6-6h-2.82l-6 6h-2.82l6-6H27.4l-6 6h-2.82l6-6h-2.82l-6 6h-2.82l6-6h-2.82l-6 6H7.3l6-6h-2.82l-5.96 5.96a2.5 2.5 0 0 1-1.82-1l4.96-4.96H4.84l-2.7 2.7V4.58C2.14 3.16 3.3 2 4.72 2h49.3c.04.4.12.78.12 1.18v.68L56 2h2.82l-4.7 4.7v2.82l6.96-6.96c.56.44.94 1.08 1 1.82l-7.96 7.96v2.82l8-8v2.82l-.12.04Z"/>
</svg>
