<svg xmlns="http://www.w3.org/2000/svg" fill="currentColor" viewBox="0 0 64 65">
  <path fill="#000" d="M63 48H4V1c0-.56-.44-1-1-1S2 .44 2 1v47H1c-.56 0-1 .44-1 1s.44 1 1 1h1v13c0 .56.44 1 1 1s1-.44 1-1V50h59c.56 0 1-.44 1-1s-.44-1-1-1Z"/>
  <path fill="#000" d="M7 16c.12 0 .24-.02.36-.06l21.02-8.18c1.66-.58 3.52-.46 5.08.38l8.36 4.46a8.306 8.306 0 0 0 9.12-.86l11.68-9.32c.44-.34.5-.98.16-1.4a.991.991 0 0 0-1.4-.16L49.7 10.18a6.363 6.363 0 0 1-6.94.66L34.4 6.38a8.335 8.335 0 0 0-6.7-.5L6.64 14.06c-.52.2-.78.78-.58 1.3.16.4.54.64.94.64Zm0 30c.56 0 1-.44 1-1V19c0-.56-.44-1-1-1s-1 .44-1 1v26c0 .56.44 1 1 1Zm3-27v26c0 .56.44 1 1 1s1-.44 1-1V19c0-.56-.44-1-1-1s-1 .44-1 1Zm4-2v28c0 .56.44 1 1 1s1-.44 1-1V17c0-.56-.44-1-1-1s-1 .44-1 1Z"/>
  <path fill="#000" d="M18 15v30c0 .56.44 1 1 1s1-.44 1-1V15c0-.56-.44-1-1-1s-1 .44-1 1Zm4-2v32c0 .56.44 1 1 1s1-.44 1-1V13c0-.56-.44-1-1-1s-1 .44-1 1Zm4-2v34c0 .56.44 1 1 1s1-.44 1-1V11c0-.56-.44-1-1-1s-1 .44-1 1Zm9 35c.56 0 1-.44 1-1V13c0-.56-.44-1-1-1s-1 .44-1 1v3h-2v-5c0-.56-.44-1-1-1s-1 .44-1 1v34c0 .56.44 1 1 1s1-.44 1-1v-3h2v3c0 .56.44 1 1 1Zm-3-28h2v2h-2v-2Zm0 4h2v2h-2v-2Zm0 4h2v2h-2v-2Zm0 4h2v2h-2v-2Zm0 4h2v2h-2v-2Zm0 6v-2h2v2h-2Zm6-25v30c0 .56.44 1 1 1s1-.44 1-1V15c0-.56-.44-1-1-1s-1 .44-1 1Zm4 2v28c0 .56.44 1 1 1s1-.44 1-1V17c0-.56-.44-1-1-1s-1 .44-1 1Zm4 0v28c0 .56.44 1 1 1s1-.44 1-1V17c0-.56-.44-1-1-1s-1 .44-1 1Zm4-2v30c0 .56.44 1 1 1s1-.44 1-1V15c0-.56-.44-1-1-1s-1 .44-1 1Zm4-2v32c0 .56.44 1 1 1s1-.44 1-1V13c0-.56-.44-1-1-1s-1 .44-1 1Zm4-2v34c0 .56.44 1 1 1s1-.44 1-1V11c0-.56-.44-1-1-1s-1 .44-1 1ZM33.7 54.3a.99.99 0 0 0-1.42 0l-8 8a.99.99 0 0 0 0 1.42c.4.4 1.02.4 1.42 0l7.3-7.3 7.3 7.3c.2.2.46.3.7.3.24 0 .52-.1.7-.3.4-.4.4-1.02 0-1.42l-8-8Z"/>
</svg>
