<svg xmlns="http://www.w3.org/2000/svg" fill="currentColor" viewBox="0 0 64 64">
  <path fill="#000" d="M41.16 30.04c1.12-.26 1.12-1.84 0-2.1l-4.42-1.02c-4.82-1.12-8.58-4.88-9.68-9.68l-1.02-4.42c-.12-.56-.58-.84-1.04-.84-.46 0-.92.28-1.04.84l-1.02 4.42c-1.12 4.82-4.88 8.58-9.68 9.68l-4.42 1.02c-1.12.26-1.12 1.84 0 2.1l4.42 1.02c4.82 1.12 8.58 4.88 9.68 9.68l1.02 4.42c.12.56.58.84 1.04.84.46 0 .92-.28 1.04-.84l1.02-4.42c1.12-4.82 4.88-8.58 9.68-9.68l4.42-1.02ZM25.12 40.3l-.12.5-.12-.5c-1.28-5.52-5.66-9.92-11.18-11.18l-.5-.12.5-.12c5.52-1.28 9.92-5.66 11.18-11.18l.12-.5.12.5c1.28 5.52 5.66 9.92 11.18 11.18l.5.12-.5.12c-5.52 1.28-9.92 5.66-11.18 11.18ZM45 40h-3v-3c0-.56-.44-1-1-1s-1 .44-1 1v3h-3c-.56 0-1 .44-1 1s.44 1 1 1h3v3c0 .56.44 1 1 1s1-.44 1-1v-3h3c.56 0 1-.44 1-1s-.44-1-1-1Z"/>
  <path fill="#000" d="M62.1 14.44 40.16.62C39.5.2 38.74 0 38 0c-.74 0-1.5.2-2.16.62L32 3.04 28.16.62C27.5.2 26.74 0 26 0c-.74 0-1.5.2-2.16.62L1.9 14.44C.72 15.18 0 16.48 0 17.88v28.24c0 1.4.72 2.7 1.9 3.44l21.92 13.8c.66.42 1.42.62 2.16.62.74 0 1.5-.2 2.16-.62l3.84-2.42 3.84 2.42c.66.42 1.42.62 2.16.62.74 0 1.5-.2 2.16-.62l21.92-13.8c1.18-.74 1.9-2.04 1.9-3.44V17.88c0-1.4-.72-2.7-1.9-3.44h.04Zm-35 47.24c-.34.2-.72.32-1.1.32-.38 0-.78-.12-1.1-.32L2.96 47.88c-.6-.38-.96-1.04-.96-1.76V17.88c0-.72.36-1.38.96-1.76L24.9 2.32c.34-.2.72-.32 1.1-.32.38 0 .78.12 1.1.32l21.92 13.8c.6.38.96 1.04.96 1.76v28.24c0 .72-.36 1.38-.96 1.76L27.1 61.68ZM62 46.12c0 .72-.36 1.38-.96 1.76l-21.92 13.8c-.34.2-.72.32-1.1.32-.38 0-.78-.12-1.1-.32l-3.02-1.9 16.22-10.22c1.18-.74 1.9-2.04 1.9-3.44V17.88c0-1.4-.72-2.7-1.9-3.44L32.24 3.18l1.64 1.04 3.02-1.9c.34-.2.72-.32 1.1-.32.38 0 .78.12 1.1.32l21.92 13.8c.6.38.96 1.04.96 1.76v28.24H62Z"/>
</svg>
