<svg xmlns="http://www.w3.org/2000/svg" fill="currentColor" viewBox="0 0 64 64">
  <path fill="#000" d="M24 44h-4v4h4v-4Zm-4-28h-4v4h4v-4Zm-4 40v3.68c.18.1.34.22.52.32H20v-4h-4Zm12-32h-4v4h4v-4Zm0 32h-4v4h4v-4Zm-12-4h-4v4h4v-4ZM28 8h-4v4h4V8ZM16 28h-4v4h4v-4Zm4 4h-4v4h4v-4Zm0-8h-4v4h4v-4ZM16 4.32c-1.4.82-2.74 1.72-4 2.72V8h4V4.32Zm-8 48.8V52h-.96c.3.38.64.74.96 1.12ZM1.04 24c-.34 1.3-.6 2.64-.78 4h3.72v-4H1.04ZM0 32c0 1.36.12 2.68.28 4H4v-4H0Zm1.04 8c.36 1.36.78 2.7 1.3 4H4v-4H1.04ZM12 56.96V56h-1.12c.36.32.74.66 1.12.96Zm8 4.7c1.3.52 2.64.94 4 1.3V60h-4v1.66ZM2.34 20H4v-3.48A34.74 34.74 0 0 0 2.34 20ZM24 52h-4v4h4v-4Zm4-36h-4v4h4v-4ZM16.52 4H20V2.34c-1.2.48-2.36 1.04-3.48 1.66ZM24 4h-4v4h4V4ZM7.04 12c-1 1.26-1.92 2.6-2.72 4H8v-4h-.96ZM28 .28c-1.36.18-2.7.44-4 .78v2.96h4V.28ZM8 20H4v4h4v-4Zm4 4H8v4h4v-4Zm0 8H8v4h4v-4Zm8-24h-4v4h4V8Zm-4 12h-4v4h4v-4Zm12 28h-4v4h4v-4ZM8 28H4v4h4v-4Zm4-20h-1.12C9.86 8.9 8.9 9.86 8 10.88V12h4V8Zm0 32H8v4h4v-4Zm4-4h-4v4h4v-4Zm-4-20H8v4h4v-4Zm4 28h-4v4h4v-4Zm4 4h-4v4h4v-4Zm8-16h-4v4h4v-4Zm-4 4h-4v4h4v-4ZM4 44v3.48c.1.18.22.34.32.52H8v-4H4Zm8 4H8v4h4v-4Zm8-8h-4v4h4v-4Zm4-12h-4v4h4v-4Zm4 12h-4v4h4v-4ZM16 12h-4v4h4v-4Zm8 0h-4v4h4v-4Zm0 8h-4v4h4v-4ZM8 36H4v4h4v-4ZM32 0v4h-4v4h4v4h-4v4h4v4h-4v4h4v4h-4v4h4v4h-4v4h4v4h-4v4h4v4h-4v4h4v4h-4v3.72c1.32.16 2.64.28 4 .28 17.68 0 32-14.32 32-32S49.68 0 32 0Z"/>
</svg>
