<svg xmlns="http://www.w3.org/2000/svg" fill="currentColor" viewBox="0 0 64 64">
  <path fill="#000" d="M48 44h-4v4h4v-4Zm12-12h-4v4h4v-4Zm-4 12h-4v4h4v-4Zm-8-8h-4v4h4v-4Zm4 20h1.12c1.02-.9 1.98-1.86 2.88-2.88V52h-4v4Zm-8-8h-4v4h4v-4Zm0 8h-4v4h4v-4Zm-4-44h-4v4h4v-4Zm4 4h-4v4h4v-4Zm4 4h-4v4h4v-4Zm-4 20h-4v4h4v-4Zm4 12h-4v4h4v-4Zm4-28h-4v4h4v-4ZM36 63.72c1.36-.18 2.7-.44 4-.78v-2.96h-4v3.74ZM56 12h-4v4h4v-4Zm-4 36h-4v4h4v-4Zm9.66-4H60v3.48A34.74 34.74 0 0 0 61.66 44ZM52 7.04V8h1.12c-.36-.32-.74-.66-1.12-.96Zm-4 52.64c1.4-.82 2.74-1.72 4-2.72V56h-4v3.68ZM56.96 52c1-1.26 1.92-2.6 2.72-4H56v4h.96ZM44 2.34c-1.3-.52-2.64-.94-4-1.3V4h4V2.34ZM52 40h-4v4h4v-4Zm4-29.12V12h.96c-.3-.38-.64-.74-.96-1.12ZM60 40h-4v4h4v-4Zm0 0h2.96c.34-1.3.6-2.64.78-4h-3.72v4H60Zm4-8c0-1.36-.12-2.68-.28-4H60v4h4Zm-1.04-8c-.36-1.36-.78-2.7-1.3-4H60v4h2.96ZM47.48 60H44v1.66c1.2-.48 2.36-1.04 3.48-1.66ZM44 8h-4v4h4V8Zm-8 16h-4v4h4v-4ZM48 8V4.32c-.18-.1-.34-.22-.52-.32H44v4h4Zm4 8h-4v4h4v-4Zm-4-4h-4v4h4v-4ZM36 8h-4v4h4V8Zm4-4h-4v4h4V4ZM28 24h-4v4h4v-4Zm4-12h-4v4h4v-4Zm-8 8h-4v4h4v-4Zm-4.22 0H20v-.46c-.08.16-.14.32-.22.46ZM60 20v-3.48c-.1-.18-.22-.34-.32-.52H56v4h4ZM52 8h-4v4h4V8Zm-24 8h-4v4h4v-4Zm8-12V.28C34.68.12 33.36 0 32 0v4h4Zm8 20h-4v4h4v-4Zm0 8h-4v4h4v-4Zm16-8h-4v4h4v-4Zm-20-4h-4v4h4v-4Zm-8 0h-4v4h4v-4Z"/>
  <path fill="#000" d="M35.56 56c.16-.42.3-.84.44-1.28V56h4v-4h-3.16c.36-1.3.68-2.64.9-4H40v-4h-1.84c.04-1.38-.04-2.72-.28-4H40v-4h-3.56c-.14-.24-.28-.46-.44-.68V32h-3.74s-.18-.1-.26-.14V28h-4v2.46c-1.2-.26-2.54-.4-4-.48V28h-4v2a43.6 43.6 0 0 1 2.24-.06c-.72 0-1.46 0-2.24.06-2.3.14-2.88-1.38-2.46-3.78-.12.68-.16 1.28-.1 1.78H20v-4h-1.88c.78-2.34 2.14-5.14 3.7-8h2.16v-3.76c-.74 1.24-1.48 2.5-2.16 3.76 1.5-2.74 3.2-5.52 4.78-8-.8 1.26-1.64 2.6-2.48 4h3.86V8H26.6c.94-1.48 1.84-2.82 2.62-4-.38.58-.8 1.2-1.24 1.86V8h4V4h-2.76c1.62-2.42 2.76-4 2.76-4C14.32 0 0 14.32 0 32s14.32 32 32 32c0 0 .86-1.56 1.94-4H36v-4h-.44ZM17.8 25.14c.1-.36.22-.74.34-1.14-.14.4-.24.78-.34 1.14Zm-.24 1.06ZM37.36 38s-.04-.12-.08-.18c.02.06.04.12.08.18Zm-7.16-6.94s-.04 0-.06-.02c0 0 .04 0 .06.02ZM56 20h-4v4h4v-4Zm0 8h-4v4h4v-4Zm0 8h-4v4h4v-4Zm-8-8h-4v4h4v-4Z"/>
  <path fill="#000" d="M36 16h-4v4h4v-4Zm4 12h-4v4h4v-4Zm12 4h-4v4h4v-4Z"/>
</svg>
