<svg xmlns="http://www.w3.org/2000/svg" fill="currentColor" viewBox="0 0 64 64">
  <path fill="#000" d="M50 8h.062l.008-.002h.004a1.996 1.996 0 0 0 1.008-3.678A1.99 1.99 0 0 0 50 4.002c-.164 0-.326.036-.486.076.1-.024.196-.06.3-.07l-.006.002h-.02l-.002.002h-.016l-.002.002h-.014l-.002.002h-.01l-.004.002h-.014l-.002.002h-.01l-.004.002h-.012l-.004.002h-.008l-.002.002h-.01l-.002.002h-.012l-.01.002v.002h-.012l-.01.002-.004.002h-.006l-.002.002h-.008l-.002.002h-.008l-.002.002h-.008l-.002.002h-.008l-.002.002-.01.002h-.004l-.002.002-.008.002h-.006l-.008.002h-.004l-.002.002-.008.002h-.004l-.008.002-.004.002h-.004l-.008.002-.002.002-.012.002-.004.002-.008.002h-.004l-.002.002-.008.002h-.004l-.01.004h-.006v.002l-.008.002h-.004l-.01.004h-.004l-.008.004h-.004l-.002.002-.008.002-.004.002-.012.004-.01.002-.002.002h-.002l-.008.002-.002.002h-.004l-.002.002-.008.002h-.002l-.012.006h-.004l-.008.004-.006.002-.008.002-.002.002-.012.004c.02-.008.042-.008.06-.014a1.989 1.989 0 0 0-1.336 1.806L48 6a2 2 0 0 0 2 2Zm6 2h.062l.008-.002h.004a1.996 1.996 0 0 0 1.008-3.678A1.99 1.99 0 0 0 56 6.002c-.164 0-.326.036-.486.076.1-.024.196-.06.3-.07l-.006.002h-.02l-.002.002h-.016l-.002.002h-.014l-.002.002h-.01l-.004.002h-.014l-.002.002h-.01l-.004.002h-.012l-.004.002h-.008l-.002.002h-.01l-.002.002h-.012l-.01.002v.002h-.012l-.01.002-.004.002h-.006l-.002.002h-.008l-.002.002h-.008l-.002.002h-.008l-.002.002h-.008l-.002.002-.01.002h-.004l-.002.002-.008.002h-.006l-.008.002h-.004l-.002.002-.008.002h-.004l-.008.002-.004.002h-.004l-.008.002-.002.002-.012.002-.004.002-.008.002h-.004l-.002.002-.008.002h-.004l-.01.004h-.006v.002l-.008.002h-.004l-.01.004h-.004l-.008.004h-.004l-.002.002-.008.002-.004.002-.012.004-.01.002-.002.002h-.002l-.008.002-.002.002h-.004l-.002.002-.008.002h-.002l-.012.006h-.004l-.008.004-.006.002-.008.002-.002.002-.012.004c.02-.008.042-.008.06-.014a1.989 1.989 0 0 0-1.336 1.806L54 8a2 2 0 0 0 2 2Zm3.08 8.32a1.984 1.984 0 0 0-1.08-.318 1.92 1.92 0 0 0-.488.078c.1-.026.196-.062.302-.072l-.002.002h-.018l-.004.002h-.016l-.002.002h-.014l-.002.002h-.014l-.002.002h-.014l-.002.002h-.012l-.002.002h-.012l-.002.002h-.01l-.002.002h-.01l-.002.002h-.012l-.002.002h-.008l-.002.002h-.01l-.002.002h-.01v.002h-.01l-.002.002h-.008l-.002.002h-.006l-.002.002h-.008l-.002.002h-.008l-.002.002h-.006l-.006.002h-.004l-.002.002h-.002l-.008.002h-.004l-.008.002-.004.002h-.004l-.008.002h-.004l-.008.002v.002h-.006l-.008.002h-.002l-.002.002-.012.002-.002.002-.01.002h-.002l-.002.002-.01.002-.004.002-.008.002h-.004l-.002.002-.01.002-.002.002-.012.002-.002.002-.01.002-.004.002-.01.002-.004.002-.01.004-.012.004h-.004l-.008.004h-.004l-.002.002-.008.002-.004.002-.01.004h-.004l-.008.004h-.004v.002l-.01.004h-.004l-.01.004c.018-.006.04-.006.06-.014a1.99 1.99 0 0 0-.53.274A1.994 1.994 0 0 0 56 19.926l-.002.074a2 2 0 0 0 2 2h.076a1.998 1.998 0 0 0 1.006-3.68Zm-1.266-6.312h-.01l-.002.002h-.016l-.002.002h-.016l-.002.002h-.016l-.002.002h-.012l-.002.002h-.014l-.002.002h-.012l-.002.002h-.008l-.004.002h-.01l-.004.002h-.008l-.004.002h-.008l-.002.002h-.012l-.01.002-.002.002h-.01v.002h-.008l-.002.002h-.008l-.002.002h-.008l-.002.002h-.008l-.004.002h-.006l-.002.002-.008.002h-.008l-.008.002-.002.002-.01.002h-.006v.002l-.008.002h-.004l-.008.002h-.004l-.004.002-.008.002h-.004l-.01.004h-.004l-.008.004h-.006l-.01.004h-.004l-.008.002-.002.002h-.004l-.008.004h-.004l-.01.004h-.004l-.008.004h-.004l-.002.002h-.002l-.008.002h-.002l-.024.008-.002.002-.008.002h-.002l-.002.002h-.004l-.008.004h-.004l-.002.002-.008.002-.002.002-.01.002-.002.002-.004.002-.008.002-.002.002-.012.004c.02-.008.042-.008.06-.014-.19.064-.368.156-.53.272a2 2 0 0 0-.806 1.534L56 14a2 2 0 0 0 2 2h.044l.002-.002h.028a1.996 1.996 0 0 0 1.006-3.678A1.98 1.98 0 0 0 58 12c-.166 0-.326.038-.486.078.1-.024.196-.06.3-.07ZM59.08 24.32a1.984 1.984 0 0 0-1.08-.318 1.976 1.976 0 0 0-.496.078c-.25.06-.487.166-.698.314a2.004 2.004 0 0 0-.804 1.496v.014l-.002.02-.002.076a2 2 0 0 0 2 2h.076a2 2 0 0 0 1.006-3.68Zm0 6a1.984 1.984 0 0 0-1.08-.318 1.976 1.976 0 0 0-.496.078c-.25.06-.487.166-.698.314a2.004 2.004 0 0 0-.804 1.496v.014l-.002.02-.002.076a2 2 0 0 0 2 2h.076a2 2 0 0 0 1.006-3.68Zm0 6a1.984 1.984 0 0 0-1.08-.318 1.976 1.976 0 0 0-.496.078c-.25.06-.487.166-.698.314a2.004 2.004 0 0 0-.804 1.496v.014l-.002.02-.002.076a2 2 0 0 0 2 2h.076a2 2 0 0 0 1.006-3.68ZM50 60h.062l.008-.002h.004a1.995 1.995 0 0 0 1.68-2.953A2 2 0 0 0 50 56.002c-.168 0-.332.036-.496.078a2.02 2.02 0 0 0-.696.314 1.996 1.996 0 0 0-.804 1.496l-.002.014v.02L48 58a2 2 0 0 0 2 2Zm6-2h.062l.008-.002h.004a1.995 1.995 0 0 0 1.68-2.953A2 2 0 0 0 56 54.002c-.168 0-.332.036-.496.078a2.02 2.02 0 0 0-.696.314 1.996 1.996 0 0 0-.804 1.496l-.002.014v.02L54 56a2 2 0 0 0 2 2Zm3.08-9.68a1.984 1.984 0 0 0-1.08-.318 1.976 1.976 0 0 0-.496.078c-.25.06-.487.166-.698.314a2.004 2.004 0 0 0-.804 1.496v.014l-.002.02-.002.076a2 2 0 0 0 2 2h.076a2 2 0 0 0 1.006-3.68Zm0-6a1.984 1.984 0 0 0-1.08-.318 1.976 1.976 0 0 0-.496.078c-.25.06-.487.166-.698.314a2.004 2.004 0 0 0-.804 1.496v.014l-.002.02-.002.076a2 2 0 0 0 2 2h.076a2 2 0 0 0 1.006-3.68ZM20 8h.062l.008-.002h.004a1.996 1.996 0 0 0 1.008-3.678A1.99 1.99 0 0 0 20 4.002c-.164 0-.326.036-.486.076.1-.024.196-.06.3-.07l-.006.002h-.02l-.002.002h-.016l-.002.002h-.014l-.002.002h-.01l-.004.002h-.014l-.002.002h-.01l-.004.002h-.012l-.004.002h-.008l-.002.002h-.01l-.002.002h-.012l-.01.002v.002h-.012l-.01.002-.004.002h-.006l-.002.002h-.008l-.002.002h-.008l-.002.002h-.008l-.002.002h-.008l-.002.002-.01.002h-.004l-.002.002-.008.002h-.006l-.008.002h-.004l-.002.002-.008.002h-.004l-.008.002-.004.002h-.004l-.008.002-.002.002-.012.002-.004.002-.008.002h-.004l-.002.002-.008.002h-.004l-.01.004h-.006v.002l-.008.002h-.004l-.01.004h-.004l-.008.004h-.004l-.002.002-.008.002-.004.002-.012.004-.01.002-.002.002h-.002l-.008.002-.002.002h-.004l-.002.002-.008.002h-.002l-.012.006h-.004l-.008.004-.006.002-.008.002-.002.002-.012.004c.02-.008.042-.008.06-.014a1.988 1.988 0 0 0-1.336 1.806L18 6a2 2 0 0 0 2 2Zm6 0h.062l.008-.002h.004a1.996 1.996 0 0 0 1.008-3.678A1.99 1.99 0 0 0 26 4.002c-.164 0-.326.036-.486.076.1-.024.196-.06.3-.07l-.006.002h-.02l-.002.002h-.016l-.002.002h-.014l-.002.002h-.01l-.004.002h-.014l-.002.002h-.01l-.004.002h-.012l-.004.002h-.008l-.002.002h-.01l-.002.002h-.012l-.01.002v.002h-.012l-.01.002-.004.002h-.006l-.002.002h-.008l-.002.002h-.008l-.002.002h-.008l-.002.002h-.008l-.002.002-.01.002h-.004l-.002.002-.008.002h-.006l-.008.002h-.004l-.002.002-.008.002h-.004l-.008.002-.004.002h-.004l-.008.002-.002.002-.012.002-.004.002-.008.002h-.004l-.002.002-.008.002h-.004l-.01.004h-.006v.002l-.008.002h-.004l-.01.004h-.004l-.008.004h-.004l-.002.002-.008.002-.004.002-.012.004-.01.002-.002.002h-.002l-.008.002-.002.002h-.004l-.002.002-.008.002h-.002l-.012.006h-.004l-.008.004-.006.002-.008.002-.002.002-.012.004c.02-.008.042-.008.06-.014a1.988 1.988 0 0 0-1.336 1.806L24 6a2 2 0 0 0 2 2Zm6 0h.062l.008-.002h.004a1.996 1.996 0 0 0 1.008-3.678A1.99 1.99 0 0 0 32 4.002c-.164 0-.326.036-.486.076.1-.024.196-.06.3-.07l-.006.002h-.02l-.002.002h-.016l-.002.002h-.014l-.002.002h-.01l-.004.002h-.014l-.002.002h-.01l-.004.002h-.012l-.004.002h-.008l-.002.002h-.01l-.002.002h-.012l-.01.002v.002h-.012l-.01.002-.004.002h-.006l-.002.002h-.008l-.002.002h-.008l-.002.002h-.008l-.002.002h-.008l-.002.002-.01.002h-.004l-.002.002-.008.002h-.006l-.008.002h-.004l-.002.002-.008.002h-.004l-.008.002-.004.002h-.004l-.008.002-.002.002-.012.002-.004.002-.008.002h-.004l-.002.002-.008.002h-.004l-.01.004h-.006v.002l-.008.002h-.004l-.01.004h-.004l-.008.004h-.004l-.002.002-.008.002-.004.002-.012.004-.01.002-.002.002h-.002l-.008.002-.002.002h-.004l-.002.002-.008.002h-.002l-.012.006h-.004l-.008.004-.006.002-.008.002-.002.002-.012.004c.02-.008.042-.008.06-.014a1.988 1.988 0 0 0-1.336 1.806L30 6a2 2 0 0 0 2 2Zm6 0h.062l.008-.002h.004a1.996 1.996 0 0 0 1.008-3.678A1.99 1.99 0 0 0 38 4.002c-.164 0-.326.036-.486.076.1-.024.196-.06.3-.07l-.006.002h-.02l-.002.002h-.016l-.002.002h-.014l-.002.002h-.01l-.004.002h-.014l-.002.002h-.01l-.004.002h-.012l-.004.002h-.008l-.002.002h-.01l-.002.002h-.012l-.01.002v.002h-.012l-.01.002-.004.002h-.006l-.002.002h-.008l-.002.002h-.008l-.002.002h-.008l-.002.002h-.008l-.002.002-.01.002h-.004l-.002.002-.008.002h-.006l-.008.002h-.004l-.002.002-.008.002h-.004l-.008.002-.004.002h-.004l-.008.002-.002.002-.012.002-.004.002-.008.002h-.004l-.002.002-.008.002h-.004l-.01.004h-.006v.002l-.008.002h-.004l-.01.004h-.004l-.008.004h-.004l-.002.002-.008.002-.004.002-.012.004-.01.002-.002.002h-.002l-.008.002-.002.002h-.004l-.002.002-.008.002h-.002l-.012.006h-.004l-.008.004-.006.002-.008.002-.002.002-.012.004c.02-.008.042-.008.06-.014a1.988 1.988 0 0 0-1.336 1.806L36 6a2 2 0 0 0 2 2Zm6 0h.062l.008-.002h.004a1.996 1.996 0 0 0 1.008-3.678A1.99 1.99 0 0 0 44 4.002c-.164 0-.326.036-.486.076.1-.024.196-.06.3-.07l-.006.002h-.02l-.002.002h-.016l-.002.002h-.014l-.002.002h-.01l-.004.002h-.014l-.002.002h-.01l-.004.002h-.012l-.004.002h-.008l-.002.002h-.01l-.002.002h-.012l-.01.002v.002h-.012l-.01.002-.004.002h-.006l-.002.002h-.008l-.002.002h-.008l-.002.002h-.008l-.002.002h-.008l-.002.002-.01.002h-.004l-.002.002-.008.002h-.006l-.008.002h-.004l-.002.002-.008.002h-.004l-.008.002-.004.002h-.004l-.008.002-.002.002-.012.002-.004.002-.008.002h-.004l-.002.002-.008.002h-.004l-.01.004h-.006v.002l-.008.002h-.004l-.01.004h-.004l-.008.004h-.004l-.002.002-.008.002-.004.002-.012.004-.01.002-.002.002h-.002l-.008.002-.002.002h-.004l-.002.002-.008.002h-.002l-.012.006h-.004l-.008.004-.006.002-.008.002-.002.002-.012.004c.02-.008.042-.008.06-.014a1.989 1.989 0 0 0-1.336 1.806L42 6a2 2 0 0 0 2 2ZM20 60h.062l.008-.002h.004a1.995 1.995 0 0 0 1.68-2.953A1.999 1.999 0 0 0 20 56.002c-.168 0-.332.036-.496.078a2.02 2.02 0 0 0-.696.314 1.996 1.996 0 0 0-.804 1.496l-.002.014v.02L18 58a2 2 0 0 0 2 2Zm6 0h.062l.008-.002h.004a1.995 1.995 0 0 0 1.68-2.953A2 2 0 0 0 26 56.002c-.168 0-.332.036-.496.078a2.02 2.02 0 0 0-.696.314 1.996 1.996 0 0 0-.804 1.496l-.002.014v.02L24 58a2 2 0 0 0 2 2Zm6 0h.062l.008-.002h.004a1.995 1.995 0 0 0 1.68-2.953A2 2 0 0 0 32 56.002c-.168 0-.332.036-.496.078a2.02 2.02 0 0 0-.696.314 1.996 1.996 0 0 0-.804 1.496l-.002.014v.02L30 58a2 2 0 0 0 2 2Zm6 0h.062l.008-.002h.004a1.995 1.995 0 0 0 1.68-2.953A2 2 0 0 0 38 56.002c-.168 0-.332.036-.496.078a2.02 2.02 0 0 0-.696.314 1.996 1.996 0 0 0-.804 1.496l-.002.014v.02L36 58a2 2 0 0 0 2 2Zm6 0h.062l.008-.002h.004a1.995 1.995 0 0 0 1.68-2.953A2 2 0 0 0 44 56.002c-.168 0-.332.036-.496.078a2.02 2.02 0 0 0-.696.314 1.996 1.996 0 0 0-.804 1.496l-.002.014v.02L42 58a2 2 0 0 0 2 2ZM14 8h.062l.008-.002h.004a1.996 1.996 0 0 0 1.008-3.678A1.99 1.99 0 0 0 14 4.002c-.164 0-.326.036-.486.076.1-.024.196-.06.3-.07l-.006.002h-.02l-.002.002h-.016l-.002.002h-.014l-.002.002h-.01l-.004.002h-.014l-.002.002h-.01l-.004.002h-.012l-.004.002h-.008l-.002.002h-.01l-.002.002h-.012l-.01.002v.002h-.012l-.01.002-.004.002h-.006l-.002.002h-.008l-.002.002h-.008l-.002.002h-.008l-.002.002h-.008l-.002.002-.01.002h-.004l-.002.002-.008.002h-.006l-.008.002h-.004l-.002.002-.008.002h-.004l-.008.002-.004.002h-.004l-.008.002-.002.002-.012.002-.004.002-.008.002h-.004l-.002.002-.008.002h-.004l-.01.004h-.006v.002l-.008.002h-.004l-.01.004h-.004l-.008.004h-.004l-.002.002-.008.002-.004.002-.012.004-.01.002-.002.002h-.002l-.008.002-.002.002h-.004l-.002.002-.008.002h-.002l-.012.006h-.004l-.008.004-.006.002-.008.002-.002.002-.012.004c.02-.008.042-.008.06-.014a1.988 1.988 0 0 0-1.336 1.806L12 6a2 2 0 0 0 2 2Zm-6 2h.062l.008-.002h.004A1.996 1.996 0 0 0 9.082 6.32 1.99 1.99 0 0 0 8 6.002c-.164 0-.326.036-.486.076.1-.024.196-.06.3-.07l-.006.002h-.02l-.002.002H7.77l-.002.002h-.014l-.002.002h-.01l-.004.002h-.014l-.002.002h-.01l-.004.002h-.012l-.004.002h-.008l-.002.002h-.01l-.002.002h-.012l-.01.002v.002h-.012l-.01.002-.004.002h-.006l-.002.002h-.008l-.002.002h-.008l-.002.002h-.008l-.002.002h-.008l-.002.002-.01.002H7.56l-.002.002-.008.002h-.006l-.008.002h-.004l-.002.002-.008.002h-.004l-.008.002-.004.002h-.004l-.008.002-.002.002-.012.002-.004.002-.008.002h-.004l-.002.002-.008.002H7.45l-.01.004h-.006v.002l-.008.002h-.004l-.01.004h-.004l-.008.004h-.004l-.002.002-.008.002-.004.002-.012.004-.01.002-.002.002h-.002l-.008.002-.002.002h-.004l-.002.002-.008.002H7.33l-.012.006h-.004l-.008.004-.006.002-.008.002-.002.002-.012.004c.02-.008.042-.008.06-.014a1.988 1.988 0 0 0-1.336 1.806L6 8a2 2 0 0 0 2 2ZM6 22h.062l.008-.002h.004a1.992 1.992 0 0 0 1.923-1.924A2 2 0 0 0 6 18.003c-.164 0-.326.036-.486.076.1-.024.196-.06.3-.07l-.006.002h-.02l-.002.002H5.77l-.002.002h-.014l-.002.002h-.01l-.004.002h-.014l-.002.002h-.01l-.004.002h-.012l-.004.002h-.008l-.002.002h-.01l-.002.002h-.012l-.01.002v.002h-.012l-.01.002-.004.002h-.006l-.002.002h-.008l-.002.002h-.008l-.002.002h-.008l-.002.002h-.008l-.002.002-.01.002H5.56l-.002.002-.008.002h-.006l-.008.002h-.004l-.002.002-.008.002h-.004l-.008.002-.004.002h-.004l-.008.002-.002.002-.012.002-.004.002-.008.002h-.004l-.002.002-.008.002H5.45l-.01.004h-.006v.002l-.008.002h-.004l-.01.004h-.004l-.008.004h-.004l-.002.002-.008.002-.004.002-.012.004-.01.002-.002.002h-.002l-.008.002-.002.002h-.004l-.002.002-.008.002H5.33l-.012.006h-.004l-.008.004-.006.002-.008.002-.002.002-.012.004c.02-.008.042-.008.06-.014a1.988 1.988 0 0 0-1.336 1.806L4 20a2 2 0 0 0 2 2Zm0-6h.062l.008-.002h.004a1.996 1.996 0 0 0 1.008-3.678A1.99 1.99 0 0 0 6 12.002c-.164 0-.326.036-.486.076.1-.024.196-.06.3-.07l-.006.002h-.02l-.002.002H5.77l-.002.002h-.014l-.002.002h-.01l-.004.002h-.014l-.002.002h-.01l-.004.002h-.012l-.004.002h-.008l-.002.002h-.01l-.002.002h-.012l-.01.002v.002h-.012l-.01.002-.004.002h-.006l-.002.002h-.008l-.002.002h-.008l-.002.002h-.008l-.002.002h-.008l-.002.002-.01.002H5.56l-.002.002-.008.002h-.006l-.008.002h-.004l-.002.002-.008.002h-.004l-.008.002-.004.002h-.004l-.008.002-.002.002-.012.002-.004.002-.008.002h-.004l-.002.002-.008.002H5.45l-.01.004h-.006v.002l-.008.002h-.004l-.01.004h-.004l-.008.004h-.004l-.002.002-.008.002-.004.002-.012.004-.01.002-.002.002h-.002l-.008.002-.002.002h-.004l-.002.002-.008.002H5.33l-.012.006h-.004l-.008.004-.006.002-.008.002-.002.002-.012.004c.02-.008.042-.008.06-.014a1.988 1.988 0 0 0-1.336 1.806L4 14a2 2 0 0 0 2 2Zm0 12h.062l.008-.002h.004a1.995 1.995 0 0 0 1.68-2.953A2 2 0 0 0 6 24.002c-.168 0-.332.036-.496.078a2.02 2.02 0 0 0-.696.314 1.996 1.996 0 0 0-.804 1.496l-.002.014v.02L4 26a2 2 0 0 0 2 2Zm0 6h.062l.008-.002h.004a1.995 1.995 0 0 0 1.68-2.953A2 2 0 0 0 6 30.002c-.168 0-.332.036-.496.078a2.02 2.02 0 0 0-.696.314 1.996 1.996 0 0 0-.804 1.496l-.002.014v.02L4 32a2 2 0 0 0 2 2Zm0 6h.062l.008-.002h.004a1.995 1.995 0 0 0 1.68-2.953A2 2 0 0 0 6 36.002c-.168 0-.332.036-.496.078a2.02 2.02 0 0 0-.696.314 1.996 1.996 0 0 0-.804 1.496l-.002.014v.02L4 38a2 2 0 0 0 2 2Zm8 20h.062l.008-.002h.004a1.995 1.995 0 0 0 1.68-2.953A1.999 1.999 0 0 0 14 56.002c-.168 0-.332.036-.496.078a2.02 2.02 0 0 0-.696.314 1.996 1.996 0 0 0-.804 1.496l-.002.014v.02L12 58a2 2 0 0 0 2 2Zm-4.92-5.68A1.984 1.984 0 0 0 8 54.002a1.975 1.975 0 0 0-.496.078c-.25.06-.487.166-.698.314a2.002 2.002 0 0 0-.804 1.496v.014l-.002.02-.002.076a2 2 0 0 0 2 2h.076a2 2 0 0 0 1.006-3.68ZM6 52h.062l.008-.002h.004a1.995 1.995 0 0 0 1.68-2.953A2 2 0 0 0 6 48.002c-.168 0-.332.036-.496.078a2.02 2.02 0 0 0-.696.314 1.996 1.996 0 0 0-.804 1.496l-.002.014v.02L4 50a2 2 0 0 0 2 2Zm0-6h.062l.008-.002h.004a1.995 1.995 0 0 0 1.68-2.953A2 2 0 0 0 6 42.002c-.168 0-.332.036-.496.078a2.02 2.02 0 0 0-.696.314 1.996 1.996 0 0 0-.804 1.496l-.002.014v.02L4 44a2 2 0 0 0 2 2Z"/>
  <path fill="#000" fill-rule="evenodd" d="M62 2H2v60h60V2ZM0 0v64h64V0H0Z" clip-rule="evenodd"/>
</svg>
