<svg width="24" height="24" viewBox="0 0 24 24" fill="none" xmlns="http://www.w3.org/2000/svg">
<path fill-rule="evenodd" clip-rule="evenodd" d="M4 7.35407L4 16.6459L12 19.8459L20 16.6459V7.35407L12 4.15407L4 7.35407ZM2 16.6459V7.35407C2 6.53626 2.4979 5.80084 3.25722 5.49711L11.2572 2.29711C11.734 2.10639 12.266 2.10639 12.7428 2.29711L20.7428 5.49711C21.5021 5.80084 22 6.53626 22 7.35407V16.6459C22 17.4637 21.5021 18.1992 20.7428 18.5029L12.7428 21.7029C12.266 21.8936 11.734 21.8936 11.2572 21.7029L3.25722 18.5029C2.4979 18.1992 2 17.4637 2 16.6459Z" fill="#181818"/>
<path fill-rule="evenodd" clip-rule="evenodd" d="M12.2903 10.2903L10.8761 11.7045L4 8.95407V11.3864V16.6459L11 19.4459L11 11.8284L10.8761 11.7045L12.2903 10.2903ZM2 16.6459V11.3864V8.95407C2 7.53914 3.42905 6.57162 4.74278 7.09711L11.6188 9.84754C11.8703 9.94813 12.0988 10.0988 12.2903 10.2903L12.4142 10.4142C12.7893 10.7893 13 11.298 13 11.8284V19.5434C13 19.8437 12.9301 20.1398 12.7958 20.4083C12.346 21.308 11.2817 21.7127 10.3478 21.3391L3.25722 18.5029C2.4979 18.1992 2 17.4637 2 16.6459Z" fill="#181818"/>
</svg>
