<svg width="24" height="24" viewBox="0 0 24 24" fill="none" xmlns="http://www.w3.org/2000/svg">
<path fill-rule="evenodd" clip-rule="evenodd" d="M4 7.35407L4 16.6459L12 19.8459L20 16.6459V7.35407L12 4.15407L4 7.35407ZM2 16.6459V7.35407C2 6.53626 2.4979 5.80084 3.25722 5.49711L11.2572 2.29711C11.734 2.10639 12.266 2.10639 12.7428 2.29711L20.7428 5.49711C21.5021 5.80084 22 6.53626 22 7.35407V16.6459C22 17.4637 21.5021 18.1992 20.7428 18.5029L12.7428 21.7029C12.266 21.8936 11.734 21.8936 11.2572 21.7029L3.25722 18.5029C2.4979 18.1992 2 17.4637 2 16.6459Z" fill="#181818"/>
<path d="M2 11.3864V16.6459C2 17.4637 2.4979 18.1992 3.25722 18.5029L10.3478 21.3391C11.2817 21.7127 12.346 21.308 12.7958 20.4083C12.9301 20.1398 13 19.8437 13 19.5434V11.8284C13 11.298 12.7893 10.7893 12.4142 10.4142L12.2903 10.2903C12.0988 10.0988 11.8703 9.94813 11.6188 9.84754L4.74278 7.09711C3.42905 6.57162 2 7.53914 2 8.95407V11.3864Z" fill="#181818"/>
</svg>
