<svg width="24" height="24" viewBox="0 0 24 24" fill="none" xmlns="http://www.w3.org/2000/svg">
<path fill-rule="evenodd" clip-rule="evenodd" d="M6 4L6 20H18L18 8.40053L13.4737 4H6ZM4 4V20C4 21.1046 4.89543 22 6 22H18C19.1046 22 20 21.1046 20 20V8.40053C20 7.86033 19.7815 7.3431 19.3942 6.96654L14.8679 2.56601C14.4946 2.20306 13.9944 2 13.4737 2H6C4.89543 2 4 2.89543 4 4Z" fill="#181818"/>
<path fill-rule="evenodd" clip-rule="evenodd" d="M13 3.70711V7C13 8.10457 13.8954 9 15 9H18.2929C18.6834 9 19 8.68342 19 8.29289C19 8.10536 18.9255 7.9255 18.7929 7.79289L14.2071 3.20711C14.0745 3.0745 13.8946 3 13.7071 3C13.3166 3 13 3.31658 13 3.70711ZM8 11C7.44772 11 7 11.4477 7 12C7 12.5523 7.44772 13 8 13H16C16.5523 13 17 12.5523 17 12C17 11.4477 16.5523 11 16 11H8ZM8 14C7.44772 14 7 14.4477 7 15C7 15.5523 7.44772 16 8 16H16C16.5523 16 17 15.5523 17 15C17 14.4477 16.5523 14 16 14H8ZM7 18C7 17.4477 7.44772 17 8 17H13C13.5523 17 14 17.4477 14 18C14 18.5523 13.5523 19 13 19H8C7.44772 19 7 18.5523 7 18Z" fill="#181818"/>
</svg>
