<svg width="24" height="24" viewBox="0 0 24 24" fill="none" xmlns="http://www.w3.org/2000/svg">
<path fill-rule="evenodd" clip-rule="evenodd" d="M4 4V20C4 21.1046 4.89543 22 6 22H18C19.1046 22 20 21.1046 20 20V8.40053C20 7.86033 19.7815 7.3431 19.3942 6.96654L14.8679 2.56601C14.4946 2.20306 13.9944 2 13.4737 2H6C4.89543 2 4 2.89543 4 4ZM8 11C7.44772 11 7 11.4477 7 12C7 12.5523 7.44772 13 8 13H16C16.5523 13 17 12.5523 17 12C17 11.4477 16.5523 11 16 11H8ZM7 15C7 14.4477 7.44772 14 8 14H16C16.5523 14 17 14.4477 17 15C17 15.5523 16.5523 16 16 16H8C7.44772 16 7 15.5523 7 15ZM8 17C7.44772 17 7 17.4477 7 18C7 18.5523 7.44772 19 8 19H13C13.5523 19 14 18.5523 14 18C14 17.4477 13.5523 17 13 17H8Z" fill="#181818"/>
</svg>
