<svg width="24" height="24" viewBox="0 0 24 24" fill="none" xmlns="http://www.w3.org/2000/svg">
<path fill-rule="evenodd" clip-rule="evenodd" d="M10.0968 6H5C4.44772 6 4 6.44772 4 7V17C4 17.5523 4.44772 18 5 18H19C19.5523 18 20 17.5523 20 17V10C20 9.44772 19.5523 9 19 9H13.0968C11.9388 9 11 8.06124 11 6.90323C11 6.40439 10.5956 6 10.0968 6ZM10.0968 4H5C3.34315 4 2 5.34315 2 7V17C2 18.6569 3.34315 20 5 20H19C20.6569 20 22 18.6569 22 17V10C22 8.34315 20.6569 7 19 7H13.0968C13.0433 7 13 6.95667 13 6.90323C13 5.29982 11.7002 4 10.0968 4Z" fill="#181818"/>
<path d="M5 4H10.0968C11.7002 4 13 5.29982 13 6.90323C13 6.95667 13.0433 7 13.0968 7H19C20.6569 7 22 8.34315 22 10V17C22 18.6569 20.6569 20 19 20H5C3.34315 20 2 18.6569 2 17V7C2 5.34315 3.34315 4 5 4Z" fill="#181818"/>
</svg>
