<svg width="24" height="24" viewBox="0 0 24 24" fill="none" xmlns="http://www.w3.org/2000/svg">
<path fill-rule="evenodd" clip-rule="evenodd" d="M8 6V4H16V6H8ZM6 6V3C6 2.44772 6.44772 2 7 2H17C17.5523 2 18 2.44772 18 3V6H19C20.6569 6 22 7.34315 22 9V17C22 17.5523 21.5523 18 21 18H19V21C19 22.1046 18.1046 23 17 23H7C5.89543 23 5 22.1046 5 21V18H3C2.44772 18 2 17.5523 2 17V9C2 7.34315 3.34315 6 5 6H6ZM6 18V20C6 21.1046 6.89543 22 8 22H16C17.1046 22 18 21.1046 18 20V18V14C18 12.8954 17.1046 12 16 12H8C6.89543 12 6 12.8954 6 14V18ZM18 11C18.5523 11 19 10.5523 19 10C19 9.44772 18.5523 9 18 9C17.4477 9 17 9.44772 17 10C17 10.5523 17.4477 11 18 11ZM17 14C17 13.4477 16.5523 13 16 13H8C7.44772 13 7 13.4477 7 14V20C7 20.5523 7.44772 21 8 21H16C16.5523 21 17 20.5523 17 20V14ZM9 15.5C8.72386 15.5 8.5 15.7239 8.5 16C8.5 16.2761 8.72386 16.5 9 16.5H15C15.2761 16.5 15.5 16.2761 15.5 16C15.5 15.7239 15.2761 15.5 15 15.5H9ZM9 17.5C8.72386 17.5 8.5 17.7239 8.5 18C8.5 18.2761 8.72386 18.5 9 18.5H15C15.2761 18.5 15.5 18.2761 15.5 18C15.5 17.7239 15.2761 17.5 15 17.5H9Z" fill="#181818"/>
</svg>
