<svg width="24" height="24" viewBox="0 0 24 24" fill="none" xmlns="http://www.w3.org/2000/svg">
<g id="File / print">
<path id="Layer01" fill-rule="evenodd" clip-rule="evenodd" d="M7 2C6.44772 2 6 2.44772 6 3V6H5C3.34315 6 2 7.34315 2 9V17C2 17.5523 2.44772 18 3 18H6V16H4V9C4 8.44772 4.44772 8 5 8H7H17H19C19.5523 8 20 8.44772 20 9V16H18V18H21C21.5523 18 22 17.5523 22 17V9C22 7.34315 20.6569 6 19 6H18V3C18 2.44772 17.5523 2 17 2H7ZM16 6V4H8V6H16ZM19 10C19 10.5523 18.5523 11 18 11C17.4477 11 17 10.5523 17 10C17 9.44772 17.4477 9 18 9C18.5523 9 19 9.44772 19 10Z" fill="#181818"/>
<path id="Layer02" fill-rule="evenodd" clip-rule="evenodd" d="M6 13C6 12.4477 6.44772 12 7 12H17C17.5523 12 18 12.4477 18 13V21C18 21.5523 17.5523 22 17 22H7C6.44772 22 6 21.5523 6 21V13ZM8 14V20H16V14H8ZM8.5 18C8.5 17.7239 8.72386 17.5 9 17.5H15C15.2761 17.5 15.5 17.7239 15.5 18C15.5 18.2761 15.2761 18.5 15 18.5H9C8.72386 18.5 8.5 18.2761 8.5 18ZM9 15.5C8.72386 15.5 8.5 15.7239 8.5 16C8.5 16.2761 8.72386 16.5 9 16.5H15C15.2761 16.5 15.5 16.2761 15.5 16C15.5 15.7239 15.2761 15.5 15 15.5H9Z" fill="#181818"/>
</g>
</svg>
