<svg xmlns="http://www.w3.org/2000/svg" fill="currentColor" viewBox="0 0 64 64">
  <path fill="#000" d="M48.22.88C48.1.36 47.64 0 47.1 0H16.9c-.52 0-.98.36-1.12.88L0 64h2.08l12.96-51.94c2.76.26 4.96 2.58 4.96 5.42v9.24c0 2.62 1.88 5 4.48 5.26A5 5 0 0 0 30 27V14c0-1.1.9-2 2-2s2 .9 2 2v39.76c0 2.9 1.96 5.56 4.8 6.12 3.84.74 7.2-2.18 7.2-5.88V22c0-2.62 1.7-4.82 4.02-5.64L61.98 64H64L48.22.88ZM44 22v31.78c0 2-1.36 3.84-3.32 4.18-2.5.42-4.68-1.52-4.68-3.94v-39.8c0-2-1.36-3.84-3.32-4.16C30.18 9.64 28 11.58 28 14v13c0 1.66-1.34 3-3 3s-3-1.34-3-3v-9.54c0-3.78-2.82-6.86-6.46-7.36l1.8-7.24c.12-.52.58-.88 1.12-.88h27.08c.52 0 .98.36 1.12.88l2.88 11.56C46.34 15.46 44 18.44 44 22Z"/>
</svg>
