<svg xmlns="http://www.w3.org/2000/svg" fill="currentColor" viewBox="0 0 64 64">
  <g clip-path="url(#a)">
    <path fill="#000" d="M55.52 37.74c.3-1.08 1.96-.64 1.66.46-1.5 5.42-4.76 10.12-9.12 13.44-9.06 6.88-21.78 6.86-30.82-.08a25.373 25.373 0 0 1-9.08-13.62c-.28-1.08 1.36-1.52 1.66-.44 1.36 5.12 4.38 9.56 8.48 12.7 8.4 6.46 20.28 6.5 28.74.08 4.06-3.1 7.1-7.46 8.5-12.52l-.02-.02ZM9.44 26.84c-.22 1.1-1.9.78-1.68-.32C10.08 14.6 20.56 6 32.7 6s22.52 8.52 24.9 20.36c.22 1.1-1.46 1.44-1.68.34C53.68 15.66 43.94 7.72 32.7 7.72c-11.24 0-21.1 8.02-23.26 19.12Zm-8.32 7.52c-1.06.36-1.62-1.24-.56-1.62 4.84-1.68 6.98-1.42 11.6-.1.76.22.74-.22.96-.8.56-1.48 1.16-2.98 1.68-4.46.3-.82.44-1.24 1.12-1.26.74 0 .86.44 1.14 1.38.64 2.12 1.32 4.24 2 6.36.52 1.64.38 1.6.74-.06.7-3.14 1.4-6.28 2.08-9.42.3-1.4.44-2.06 1.28-2.02.72.04.86.62 1.14 1.72 1.14 4.4 2.44 8.82 3.66 13.2.5 1.84.38 1.78.68-.06.96-5.84 1.98-11.68 2.88-17.52.22-1.4.32-2.12 1.12-2.16.82-.04.96.72 1.26 2.26 1.06 5.62 2.18 11.24 3.28 16.84.36 1.92.26 1.86.62-.02.78-4.06 1.58-8.14 2.3-12.2.24-1.34.36-2.02 1.16-2.02.8 0 .92.66 1.22 1.94.08.36.2.82.28 1.2l1.96 7.92c.48 1.96.32 1.88.84-.04l1.36-5.08c.14-.56.34-1.76.76-2.06.26-.18.74-.22 1.02-.06.44.24.82 1.4 1.04 1.94l1.54 3.62c.16.38.3 1.02.78.9.34-.08.68-.18 1.06-.3 2.02-.64 4.8-1.52 10.3.36 1.06.36.5 1.98-.56 1.62-4.96-1.72-7.42-.94-9.22-.36-.42.14-.82.26-1.18.34-1.52.34-1.9 0-2.3-.9-.4-.86-.76-1.76-1.12-2.64-.7-1.66-.52-1.72-.98.02L46 38.46c-.3 1.12-1.52.92-1.82-.16-.9-3.14-1.6-6.52-2.38-9.72-.48-1.96-.34-1.92-.72.04-.82 4.32-1.72 8.66-2.44 13-.18 1.06-.28 1.64-.98 1.72-.78.1-.98-.46-1.22-1.7-1.1-5.52-2.16-11.06-3.24-16.6-.54-2.72-.38-2.44-.8.12-.88 5.38-1.84 10.78-2.66 16.18-.2 1.3-.3 1.94-1.1 1.96-.76.02-.92-.62-1.26-1.88-1.18-4.44-2.46-8.86-3.68-13.28-.54-1.94-.38-2.08-.84-.06L20.9 36.9c-.06.28-.12.56-.16.8-.2.96-.3 1.44-1.04 1.46-.74.02-.88-.46-1.18-1.46-.04-.12-.08-.24-.22-.7l-2.04-6.48c-.42-1.32-.26-1.34-.76-.04l-.72 1.9c-.64 1.68-.6 2.6-3.04 1.9-4.22-1.2-6.14-1.46-10.58.08h-.04Z"/>
  </g>
  <defs>
    <clipPath id="a">
      <path fill="#fff" d="M0 0h64v64H0z"/>
    </clipPath>
  </defs>
</svg>
