<svg xmlns="http://www.w3.org/2000/svg" fill="currentColor" viewBox="0 0 66 64">
  <path fill="#000" d="m24.92 55.12 1.86.78 2.36-5.52-1.86-.78-2.36 5.52ZM11.08 40.38 8.72 45.9l1.86.78 2.36-5.52-1.86-.78Zm30.2 0-2.36 5.52 1.86.78 2.36-5.52-1.86-.78Zm-10.06 0-2.36 5.52 1.86.78 2.36-5.52-1.86-.78ZM4.78 55.12l1.86.78L9 50.38l-1.86-.78-2.36 5.52ZM13.24 64l1.88-4.42-1.86-.78-2.22 5.2h2.2Zm21.74-8.88 1.86.78 2.36-5.52-1.86-.78-2.36 5.52ZM33.38 64l1.88-4.42-1.86-.78-2.22 5.2h2.2Zm18.54-54c-.54 0-1.08.04-1.6.1-.06 0-.12 0-.18.02-.52.06-1.02.16-1.5.3C47.44 4.48 42.16 0 35.82 0S23.84 4.8 22.9 11.06c-1.6-.68-3.34-1.06-5.2-1.06-7.22 0-13.08 5.82-13.08 13S9.94 35.44 16.7 35.94V36h36.24v-.06c6.76-.52 12.08-6.1 12.08-12.94 0-7.18-5.86-13-13.08-13h-.02Zm.86 23.96-.44.04H17.42l-.58-.04C11.1 33.52 6.62 28.72 6.62 23c0-6.06 4.96-11 11.08-11 1.52 0 3 .3 4.4.9l2.4 1.04.38-2.58C25.68 6.02 30.38 2 35.82 2c5.44 0 9.82 3.7 10.86 8.82l.06.26C42.4 12.96 39.28 17.1 38.9 22h2.02c.44-4.78 3.94-8.64 8.54-9.7.24-.06.48-.1.72-.14.58-.1 1.16-.16 1.76-.16 6.1 0 11.08 4.94 11.08 11 0 5.7-4.48 10.52-10.22 10.96h-.02Zm-3.8 11.96 1.86.78 2.36-5.52-1.86-.78-2.36 5.52ZM3.18 64l1.88-4.42-1.86-.78L.98 64h2.2Zm41.86-8.88 1.86.78 2.36-5.52-1.86-.78-2.36 5.52Zm-30.2 0 1.86.78 2.36-5.52-1.86-.78-2.36 5.52Zm6.28-14.74-2.36 5.52 1.86.78 2.36-5.52-1.86-.78Zm2.18 23.6 1.88-4.42-1.86-.78-2.22 5.2h2.2Zm20.14 0 1.88-4.42-1.86-.78-2.22 5.2h2.2Z"/>
</svg>
