<svg xmlns="http://www.w3.org/2000/svg" fill="currentColor" viewBox="0 0 64 64">
  <path fill="#000" d="M61 28H3c-1.66 0-3 1.34-3 3v2c0 1.66 1.34 3 3 3h58c1.66 0 3-1.34 3-3v-2c0-1.66-1.34-3-3-3Zm1 5c0 .56-.44 1-1 1H3c-.56 0-1-.44-1-1v-2c0-.56.44-1 1-1h58c.56 0 1 .44 1 1v2ZM51.74 60c-.06-.14-.12-.28-.2-.42-.1-.2-.24-.4-.42-.58l-4.78-4.98-5.74-6-3.84-4-1.12-1.16-2.5-2.6c-.58-.6-1.36-.92-2.14-.92s-1.56.3-2.14.92l-2.5 2.6-1.12 1.16-3.84 4-5.74 6L10.88 59c-.18.18-.3.38-.42.58-.08.14-.14.28-.2.42-.26.66-.24 1.36-.02 2 .18.54.52 1 .96 1.36.02 0 .04.04.06.06.2.14.42.26.64.34.06.02.1.06.16.08.3.1.6.16.94.16h35.94c.34 0 .66-.06.94-.16.06 0 .1-.06.16-.08.24-.1.46-.2.64-.34.02 0 .04-.04.06-.06a2.98 2.98 0 0 0 .94-3.36h.06ZM30.32 41.62c.24-.26.54-.3.7-.3.16 0 .44.04.7.3l.36.38h-2.12l.36-.38ZM28.04 44H34l1.92 2h-9.8l1.92-2Zm-3.84 4h13.62l1.92 2H22.28l1.92-2Zm-3.84 4h21.28l1.92 2H18.44l1.92-2Zm-3.84 4h28.96l1.92 2H14.62l1.92-2h-.02Zm33.34 5.42c-.08.18-.32.58-.88.58H13.06c-.58 0-.82-.4-.88-.58-.08-.18-.2-.64.2-1.04l.36-.36h36.62l.36.36c.4.42.26.86.2 1.04h-.06ZM28.88 23.76c.58.6 1.36.92 2.14.92s1.56-.3 2.14-.92L51.12 5.02C52.92 3.14 51.6 0 48.98 0H13.06c-2.62 0-3.94 3.14-2.14 5.02l17.96 18.76v-.02ZM12.16 2.58c.08-.18.32-.58.88-.58h35.94c.58 0 .82.4.88.58.08.18.2.64-.2 1.04L31.7 22.38c-.24.26-.54.3-.7.3-.16 0-.44-.04-.7-.3L12.36 3.64c-.4-.42-.26-.86-.2-1.04v-.02Zm49.38 43.54-1.66-1.66a2.656 2.656 0 0 0-3.76 0l-1.66 1.66c-.24.24-.68.24-.92 0l-1.66-1.66a2.656 2.656 0 0 0-3.76 0l-1.66 1.66c-.26.26-.68.26-.92 0l-2.84-2.84a.99.99 0 0 0-1.42 0 .99.99 0 0 0 0 1.42l2.84 2.84c1 1 2.76 1 3.76 0l1.66-1.66c.26-.26.68-.26.92 0l1.66 1.66a2.656 2.656 0 0 0 3.76 0l1.66-1.66c.24-.24.68-.24.92 0l1.66 1.66a2.656 2.656 0 0 0 3.76 0l.12-.12V44.6l-1.54 1.54c-.26.26-.68.26-.92 0v-.02Zm0 6-1.66-1.66a2.656 2.656 0 0 0-3.76 0l-1.66 1.66c-.26.26-.68.26-.92 0l-1.66-1.66a2.656 2.656 0 0 0-3.76 0 .99.99 0 0 0 0 1.42c.4.4 1.02.4 1.42 0 .24-.24.68-.24.92 0l1.66 1.66a2.656 2.656 0 0 0 3.76 0l1.66-1.66c.24-.24.68-.24.92 0l1.66 1.66a2.656 2.656 0 0 0 3.76 0l.12-.12V50.6l-1.54 1.54c-.26.26-.68.26-.92 0v-.02Zm0 6-1.66-1.66a2.656 2.656 0 0 0-3.76 0l-1.66 1.66a.99.99 0 0 0 0 1.42c.4.4 1.02.4 1.42 0l1.66-1.66c.26-.26.68-.26.92 0l1.66 1.66a2.656 2.656 0 0 0 3.76 0l.12-.12V56.6l-1.54 1.54c-.26.26-.68.26-.92 0v-.02Zm-48-6.24c.24-.24.68-.24.92 0 .4.4 1.02.4 1.42 0 .4-.4.4-1.02 0-1.42a2.656 2.656 0 0 0-3.76 0l-1.66 1.66c-.26.26-.68.26-.92 0l-1.66-1.66a2.656 2.656 0 0 0-3.76 0l-1.66 1.66c-.26.26-.68.26-.92 0L0 50.58v2.82l.12.12a2.656 2.656 0 0 0 3.76 0l1.66-1.66c.24-.24.68-.24.92 0l1.66 1.66a2.656 2.656 0 0 0 3.76 0l1.66-1.66v.02Zm-5.66 4.58a2.656 2.656 0 0 0-3.76 0l-1.66 1.66c-.26.26-.68.26-.92 0L0 56.58v2.82l.12.12a2.656 2.656 0 0 0 3.76 0l1.66-1.66c.26-.26.68-.26.92 0l1.66 1.66c.4.4 1.02.4 1.42 0 .4-.4.4-1.02 0-1.42l-1.66-1.66v.02Zm-4-8.92 1.66-1.66c.24-.24.68-.24.92 0l1.66 1.66a2.656 2.656 0 0 0 3.76 0l1.66-1.66c.26-.26.68-.26.92 0l1.66 1.66c1 1 2.76 1 3.76 0l2.84-2.84c.4-.4.4-1.02 0-1.42a.99.99 0 0 0-1.42 0l-2.84 2.84c-.26.26-.68.26-.92 0l-1.66-1.66a2.656 2.656 0 0 0-3.76 0l-1.66 1.66c-.24.24-.68.24-.92 0l-1.66-1.66a2.656 2.656 0 0 0-3.76 0l-1.66 1.66c-.26.26-.68.26-.92 0L0 44.58v2.82l.12.12a2.656 2.656 0 0 0 3.76 0v.02Z"/>
</svg>
