<svg xmlns="http://www.w3.org/2000/svg" fill="currentColor" viewBox="0 0 65 64">
  <path fill="#000" d="M50.92 10c-.54 0-1.08.04-1.6.1-.06 0-.12 0-.18.02-.52.06-1.02.16-1.5.3C46.44 4.48 41.16 0 34.82 0S22.84 4.8 21.9 11.06c-1.6-.68-3.34-1.06-5.2-1.06-7.22 0-13.08 5.82-13.08 13S8.94 35.44 15.7 35.94V36h36.24v-.06c6.76-.52 12.08-6.1 12.08-12.94 0-7.18-5.86-13-13.08-13h-.02Zm.86 23.96-.44.04H16.42l-.58-.04C10.12 33.52 5.62 28.72 5.62 23c0-6.06 4.96-11 11.08-11 1.52 0 3 .3 4.4.9l2.4 1.04.38-2.58C24.68 6.02 29.38 2 34.82 2c5.44 0 9.82 3.7 10.86 8.82l.06.26C41.4 12.96 38.28 17.1 37.9 22h2.02c.44-4.78 3.94-8.64 8.54-9.7.24-.06.48-.1.72-.14.58-.1 1.16-.16 1.76-.16 6.1 0 11.08 4.94 11.08 11 0 5.7-4.48 10.52-10.22 10.96h-.02Zm-15.12 6.8-1.42-1.42L32 42.58V38h-2v4.58l-3.24-3.24-1.42 1.42L28.58 44H24v2h4.58l-3.24 3.24 1.42 1.42L30 47.42V52h2v-4.58l3.24 3.24 1.42-1.42L33.42 46H38v-2h-4.58l3.24-3.24Zm21.42 2.58-1.42-1.42L52 46.58V40h-2v6.58l-4.66-4.66-1.42 1.42L48.58 48H42v2h6.58l-4.66 4.66 1.42 1.42L50 51.42V58h2v-6.58l4.66 4.66 1.42-1.42L53.42 50H60v-2h-6.58l4.66-4.66Zm-42 6-1.42-1.42L10 52.58V46H8v6.58l-4.66-4.66-1.42 1.42L6.58 54H0v2h6.58l-4.66 4.66 1.42 1.42L8 57.42V64h2v-6.58l4.66 4.66 1.42-1.42L11.42 56H18v-2h-6.58l4.66-4.66Z"/>
</svg>
