<svg xmlns="http://www.w3.org/2000/svg" fill="currentColor" viewBox="0 0 65 65">
  <path fill="#000" d="m61.98 27.02-.1-.26v-.16c.66-1.6 1-3.28 1-5.02 0-3.52-1.36-6.82-3.84-9.3-2.44-2.44-5.8-3.86-9.24-3.86h-.94l-.06-.22C47.66 4 43.84 1.04 39.4.98c-2.88 0-5.56 1.3-7.34 3.58l-.12.14-.18-.04c-1.2-.24-2.42-.38-3.82-.38h-.06c-.56 0-1.12 0-1.66.08-4.32.4-8.34 2.36-11.46 5.64-.26.28-.5.56-.72.86l-.42.5-.4.58c-.22.3-.42.6-.62.94-.04.06-.08.14-.14.24-1.14 1.92-1.9 4-2.26 6.22 0 .2-.04.38-.08.54 0 .1-.04.18-.06.28v.24l-.26.02c-3.42.4-6.34 2.5-7.84 5.6-1.5 3.12-1.3 6.74.52 9.66a9.894 9.894 0 0 0 8.4 4.72h11.16c.44 0 .82-.36.82-.82 0-.46-.36-.82-.82-.82H10.88c-4.52-.14-8.06-3.8-8.1-8.36-.02-4.54 3.48-8.26 8-8.46h.74l.04-.72c.42-5.66 3.8-10.8 8.82-13.4C22.68 6.62 25.26 6 27.86 6c2.98 0 5.92.82 8.48 2.38 4.82 2.94 7.84 8.3 7.86 13.98 0 1.68-.26 3.34-.74 4.92-.08.26-.04.54.12.74.16.2.4.32.74.32.34 0 .68-.24.78-.58.54-1.76.82-3.58.82-5.4 0-.9-.08-1.78-.2-2.66l-.06-.38.38.04c1.2.12 2.36.42 3.46.96 4.48 2.24 6.38 7.76 4.24 12.3-.2.4 0 .9.38 1.08.12.06.22.08.34.08.3 0 .6-.18.72-.46 1.24-2.62 1.4-5.56.44-8.3-.96-2.74-2.9-4.94-5.5-6.2-1.48-.7-3.04-1.06-4.66-1.1h-.22l-.06-.22A18.044 18.044 0 0 0 34 5.4l-.44-.16.34-.34a7.871 7.871 0 0 1 5.58-2.34c3.94.06 7.26 2.94 7.88 6.86l.14.9.92-.16c.36-.08.74-.12 1.12-.12h.24c3.06 0 5.94 1.2 8.1 3.38 2.16 2.18 3.36 5.06 3.36 8.16 0 1.78-.44 3.58-1.2 5.18l-.32.7.68.36c2.38 1.24 3.58 3.94 2.94 6.56-.64 2.6-2.94 4.44-5.64 4.44H32.94c-.44 0-.82.36-.82.82 0 .46.36.82.82.82h24.8a7.413 7.413 0 0 0 6.88-5.22 7.51 7.51 0 0 0-2.66-8.26l.02.04Z"/>
  <path fill="#000" d="M32.82 46.66h-8.28l5.36-12.02a.78.78 0 0 0 0-.6c-.08-.18-.26-.34-.52-.42a.827.827 0 0 0-.38-.1c-.1 0-.18 0-.28.04-.22.08-.38.24-.48.44l-5.9 13.2c-.16.46.06.98.54 1.16.08.04.18.06.32.06h8.36l-5.9 15.44c-.14.42.06.88.46 1.04.1.04.22.06.32.06a.9.9 0 0 0 .82-.54l6.22-16.44c.08-.14.12-.28.12-.44 0-.48-.36-.88-.82-.9l.04.02Z"/>
</svg>
