<svg xmlns="http://www.w3.org/2000/svg" fill="currentColor" viewBox="0 0 64 64">
  <g clip-path="url(#a)">
    <path fill="#000" d="M7.88 50.78c1.78 1.62 4.3 1.62 6.08 0l5.08-4.6c1.06-.96 2.54-.96 3.6 0l5.08 4.6c1.78 1.62 4.3 1.62 6.08 0l5.08-4.6c1.06-.96 2.54-.96 3.6 0l5.08 4.6c.9.8 1.96 1.22 3.04 1.22s2.14-.4 3.04-1.22l5.08-4.6c1.06-.96 2.54-.96 3.6 0 .42.38 1.06.32 1.4-.18.34-.48.28-1.2-.16-1.58-1.8-1.62-4.3-1.62-6.08 0l-5.08 4.6c-1.06.96-2.54.96-3.6 0l-5.08-4.6c-1.8-1.62-4.3-1.62-6.08 0l-5.08 4.6c-1.06.96-2.54.96-3.6 0l-5.08-4.6c-1.8-1.62-4.3-1.62-6.08 0l-5.08 4.6c-1.06.96-2.54.96-3.6 0l-7.5-6.78c-.42-.38-1.06-.3-1.4.18-.34.48-.28 1.2.16 1.58l7.5 6.78Zm49.66 5.66-5.08 4.6c-1.06.96-2.54.96-3.6 0l-5.08-4.6c-1.8-1.62-4.3-1.62-6.08 0l-5.08 4.6c-1.06.96-2.54.96-3.6 0l-5.08-4.6c-1.8-1.62-4.3-1.62-6.08 0l-5.08 4.6c-1.06.96-2.54.96-3.6 0l-7.5-6.78c-.42-.38-1.06-.3-1.4.18-.34.48-.28 1.2.16 1.58l7.5 6.78c1.78 1.62 4.3 1.62 6.08 0l5.08-4.6c1.06-.96 2.54-.96 3.6 0l5.08 4.6c1.78 1.62 4.3 1.62 6.08 0l5.08-4.6c1.06-.96 2.54-.96 3.6 0l5.08 4.6c.9.8 1.96 1.22 3.04 1.22s2.14-.4 3.04-1.22l5.08-4.6c1.06-.96 2.54-.96 3.6 0 .42.38 1.06.32 1.4-.18.34-.48.28-1.2-.16-1.58-1.8-1.62-4.3-1.62-6.08 0ZM16 34c5.52 0 10-4.48 10-10S16 0 16 0 6 18.48 6 24s4.48 10 10 10Zm0-29.7c3.62 7.06 8 16.58 8 19.7 0 4.42-3.58 8-8 8s-8-3.58-8-8c0-3.12 4.38-12.66 8-19.7ZM50 36c3.32 0 6-2.64 6-5.88C56 26.88 50 16 50 16s-6 10.86-6 14.12S46.68 36 50 36Zm0-15.72c2.14 4.22 4 8.52 4 9.84 0 2.14-1.8 3.88-4 3.88s-4-1.74-4-3.88c0-1.34 1.86-5.62 4-9.84Z"/>
  </g>
  <defs>
    <clipPath id="a">
      <path fill="#fff" d="M0 0h64v64H0z"/>
    </clipPath>
  </defs>
</svg>
